<svg xmlns="http://www.w3.org/2000/svg" width="30" height="30" viewBox="0 0 30 30">
    <defs>
        <style>
            .cls-1{fill:#b8a288}
        </style>
    </defs>
    <g id="icon_mail" transform="translate(-35 -6)">
        <g id="Group_15718" transform="translate(37 12)">
            <path id="Path_296" d="M178.559 425.8h-24.384a.806.806 0 0 1-.808-.8v-16.392a.806.806 0 0 1 .808-.8h24.384a.807.807 0 0 1 .808.8V425a.807.807 0 0 1-.808.8zm-23.576-1.61h22.767v-14.78h-22.767z" class="cls-1" transform="translate(-153.367 -407.803)"/>
            <path id="Path_297" d="M166.367 418.938a3.646 3.646 0 0 1-2.382-.877l-10.348-8.9a.757.757 0 0 1-.216-.857.808.808 0 0 1 .755-.5h24.383a.808.808 0 0 1 .755.5.757.757 0 0 1-.217.857l-10.348 8.9a3.646 3.646 0 0 1-2.382.877zm-10.074-9.579l8.769 7.542a2.014 2.014 0 0 0 2.611 0l8.769-7.542z" class="cls-1" transform="translate(-153.367 -407.803)"/>
            <path id="Path_298" d="M178.558 432.1h-24.383a.807.807 0 0 1-.755-.5.756.756 0 0 1 .217-.857l9.081-7.811a.83.83 0 0 1 1.141.062.757.757 0 0 1-.064 1.1l-7.5 6.454h20.149l-7.5-6.454a.757.757 0 0 1-.064-1.1.83.83 0 0 1 1.141-.062l9.081 7.811a.757.757 0 0 1 .217.857.807.807 0 0 1-.761.5z" class="cls-1" transform="translate(-153.366 -414.206)"/>
        </g>
        <path id="Path_197931" fill="none" d="M0 0h30v30H0z" transform="translate(35 6)"/>
    </g>
</svg>
