<svg xmlns="http://www.w3.org/2000/svg" width="22" height="22" viewBox="0 0 22 22">
    <defs>
        <style>
            .cls-2{fill:#fff}
        </style>
    </defs>
    <g id="icon_language" transform="translate(-1725 -1289)">
        <g id="Group_559" transform="translate(1725.32 1289)">
            <path id="Rectangle_614" fill="none" d="M0 0H22V22H0z" transform="translate(-.32)"/>
        </g>
        <g id="Group_15190" transform="translate(1726 1290)">
            <g id="Group_551">
                <g id="Group_541">
                    <path id="Path_338" d="M149.52 72.578a10 10 0 1 1 10-10 10.011 10.011 0 0 1-10 10zm0-19.091a9.091 9.091 0 1 0 9.09 9.091 9.1 9.1 0 0 0-9.09-9.091z" class="cls-2" transform="translate(-139.52 -52.578)"/>
                </g>
                <g id="Group_544" transform="translate(4.38)">
                    <g id="Group_542" transform="translate(0 .001)">
                        <path id="Path_339" d="M151.416 72.578a.386.386 0 0 1-.233-.079 11.826 11.826 0 0 1 .009-19.846.381.381 0 0 1 .224-.073.433.433 0 0 1 .414.452.463.463 0 0 1-.219.4 10.869 10.869 0 0 0 0 18.282.464.464 0 0 1 .219.4.437.437 0 0 1-.414.464z" class="cls-2" transform="translate(-145.795 -52.581)"/>
                    </g>
                    <g id="Group_543" transform="translate(5.205)">
                        <path id="Path_340" d="M155.6 72.576a.394.394 0 0 1-.3-.14.473.473 0 0 1 .106-.717 10.873 10.873 0 0 0 0-18.282.423.423 0 0 1-.1-.08.489.489 0 0 1 0-.645.385.385 0 0 1 .519-.06 11.829 11.829 0 0 1-.019 19.863.392.392 0 0 1-.206.061z" class="cls-2" transform="translate(-155.182 -52.579)"/>
                    </g>
                </g>
                <g id="Group_547" transform="translate(3.771 2.234)">
                    <g id="Group_545">
                        <path id="Path_341" d="M150.923 59.668a9.089 9.089 0 0 1-6.09-2.339.414.414 0 0 1 .554-.615 8.273 8.273 0 0 0 11.076 0 .414.414 0 0 1 .553.615 9.091 9.091 0 0 1-6.093 2.339z" class="cls-2" transform="translate(-144.697 -56.608)"/>
                    </g>
                    <g id="Group_546" transform="translate(0 12.467)">
                        <path id="Path_342" d="M156.74 78.9a.412.412 0 0 1-.277-.106 8.26 8.26 0 0 0-11.075 0 .414.414 0 0 1-.554-.614 9.089 9.089 0 0 1 12.184 0 .414.414 0 0 1-.277.721z" class="cls-2" transform="translate(-144.697 -75.84)"/>
                    </g>
                </g>
                <g id="Group_550">
                    <g id="Group_548" transform="translate(0 9.586)">
                        <path id="Path_343" d="M159.065 69.068h-19.09a.415.415 0 1 1 0-.827h19.091a.415.415 0 1 1 0 .827z" class="cls-2" transform="translate(-139.52 -68.241)"/>
                    </g>
                    <g id="Group_549" transform="translate(9.587)">
                        <path id="Path_344" d="M155.6 72.578a.436.436 0 0 1-.414-.455v-19.09a.415.415 0 1 1 .827 0v19.09a.436.436 0 0 1-.413.455z" class="cls-2" transform="translate(-155.184 -52.578)"/>
                    </g>
                </g>
            </g>
        </g>
    </g>
</svg>
