<svg xmlns="http://www.w3.org/2000/svg" width="40" height="40" viewBox="0 0 40 40">
    <defs>
        <style>
            .cls-2,.cls-3{stroke:#b8a288;fill:transparent;stroke-width:.4px}.cls-3{fill:#b8a288}
        </style>
    </defs>
    <g id="icon_print" transform="translate(-1413 -240)">
        <g id="Group_418" transform="translate(1413 240)">
            <g id="Ellipse_5" fill="#fff" stroke="#b8a288">
                <circle cx="20" cy="20" r="20" stroke="none"/>
                <circle cx="20" cy="20" r="19.5" fill="none"/>
            </g>
        </g>
        <g id="Group_500" transform="translate(1419 247)">
            <path id="Path_315" d="M314.142 134.757v-1.926a2.235 2.235 0 0 1 2.233-2.233h22.849a2.236 2.236 0 0 1 2.234 2.233v8.747a2.236 2.236 0 0 1-2.234 2.234h-2.705l-.171-1.655-.2-1.939h-16.69l-.2 1.939-.171 1.655h-2.705a2.235 2.235 0 0 1-2.233-2.234v-5.523" class="cls-2" transform="translate(-313.801 -122.801)"/>
            <g id="Group_501" transform="translate(0 7.456)">
                <path id="Path_317" d="M338.672 143.6h-2.7a.342.342 0 0 1-.34-.306l-.343-3.287h-16.078l-.343 3.287a.342.342 0 0 1-.34.306h-2.7a2.578 2.578 0 0 1-2.575-2.575V133.5a.341.341 0 1 1 .683 0v7.523a1.894 1.894 0 0 0 1.892 1.892h2.4l.343-3.288a.342.342 0 0 1 .34-.306H335.6a.341.341 0 0 1 .34.306l.343 3.288h2.4a1.894 1.894 0 0 0 1.893-1.892v-8.743a1.894 1.894 0 0 0-1.893-1.892h-22.859a1.894 1.894 0 0 0-1.892 1.892v1.926a.341.341 0 0 1-.683 0v-1.926a2.577 2.577 0 0 1 2.575-2.575h22.848a2.577 2.577 0 0 1 2.575 2.575v8.747a2.578 2.578 0 0 1-2.575 2.573z" class="cls-3" transform="translate(-313.249 -129.705)"/>
            </g>
            <circle id="Ellipse_7" cx="1.294" cy="1.294" r="1.294" class="cls-2" transform="translate(3.064 9.761)"/>
            <path id="Rectangle_546" d="M2.069 0v3.356H0V2.069A2.069 2.069 0 0 1 2.069 0z" class="cls-2" transform="translate(3.585 4.441)"/>
            <path id="Rectangle_547" d="M0 0h2.069v3.356A2.069 2.069 0 0 1 0 1.287V0z" class="cls-2" transform="rotate(-180 12.207 3.896)"/>
            <g id="Group_502" transform="translate(2.723 9.419)">
                <path id="Path_318" d="M322 138.112a1.636 1.636 0 1 1 1.636-1.636 1.637 1.637 0 0 1-1.636 1.636zm0-2.589a.953.953 0 1 0 .953.953.954.954 0 0 0-.953-.953z" class="cls-3" transform="translate(-320.369 -134.84)"/>
            </g>
            <path id="Path_319" d="M367 113.735h-2.207a.691.691 0 0 1-.691-.691V111.1z" class="cls-2" transform="translate(-344.657 -110.759)"/>
            <path id="Path_320" d="M343.873 151.789v1.65a1.118 1.118 0 0 1-1.12 1.114h-.064l-.2-1.939H325.8l-.2 1.939h-.064a1.118 1.118 0 0 1-1.119-1.114v-1.65a1.122 1.122 0 0 1 1.119-1.12h17.225a1.123 1.123 0 0 1 1.112 1.12z" class="cls-2" transform="translate(-320.141 -135.197)"/>
            <g id="Group_503" transform="translate(3.926 15.131)">
                <path id="Path_321" d="M342.2 154.342h-.065a.342.342 0 0 1-.34-.306l-.172-1.633h-16.071l-.172 1.633a.341.341 0 0 1-.34.306h-.064a1.46 1.46 0 0 1-1.461-1.456v-1.65a1.463 1.463 0 0 1 1.461-1.461H342.2a1.463 1.463 0 0 1 1.46 1.461v1.65a1.46 1.46 0 0 1-1.46 1.456zm-16.957-2.622h16.689a.341.341 0 0 1 .34.306l.168 1.6a.774.774 0 0 0 .538-.735v-1.65a.779.779 0 0 0-.777-.778h-17.224a.779.779 0 0 0-.778.778v1.65a.774.774 0 0 0 .538.735l.167-1.6a.342.342 0 0 1 .341-.306z" class="cls-3" transform="translate(-323.516 -149.776)"/>
            </g>
            <path id="Path_322" d="M343.99 161.555l.22 2.115a.977.977 0 0 1-.969 1.077h-16.4a.977.977 0 0 1-.969-1.077l.45-4.322.171-1.655.2-1.939h16.69l.2 1.939.171 1.655.121 1.164" class="cls-2" transform="translate(-321.041 -138.337)"/>
            <path id="Path_324" d="M344.726 113.735v4.82h-16.69v-6.479a.977.977 0 0 1 .976-.977h12.816z" class="cls-2" transform="translate(-322.382 -110.759)"/>
            <path id="Path_326" d="M367 113.735h-2.207a.691.691 0 0 1-.691-.691V111.1z" class="cls-2" transform="translate(-344.657 -110.759)"/>
            <path id="Path_327" fill="rgba(0,0,0,0)" stroke="#b8a288" stroke-width="0.4px" d="M367 113.735h-2.207a.691.691 0 0 1-.691-.691V111.1z" opacity="0.2" transform="translate(-344.657 -110.759)"/>
            <g id="Group_504" transform="translate(4.483 17.075)">
                <path id="Path_328" d="M342.689 164.537h-16.4a1.32 1.32 0 0 1-1.31-1.453l.825-7.917a.342.342 0 0 1 .34-.306h16.689a.341.341 0 0 1 .34.306l.5 4.759a.341.341 0 0 1-.679.07l-.464-4.452h-16.078l-.793 7.61a.637.637 0 0 0 .161.491.623.623 0 0 0 .469.209h16.4a.623.623 0 0 0 .468-.209.637.637 0 0 0 .161-.491l-.45-4.335a.341.341 0 0 1 .3-.375.346.346 0 0 1 .375.3l.45 4.336a1.319 1.319 0 0 1-1.309 1.453z" class="cls-3" transform="translate(-324.973 -154.861)"/>
            </g>
            <g id="Group_505" transform="translate(5.313)">
                <path id="Path_329" d="M344.175 118.347h-16.69a.342.342 0 0 1-.341-.341v-6.479a1.319 1.319 0 0 1 1.318-1.318h12.816a.341.341 0 0 1 .23.089l2.9 2.635a.341.341 0 0 1 .112.253v4.82a.342.342 0 0 1-.345.341zm-16.348-.683h16.006v-4.328l-2.688-2.445h-12.683a.636.636 0 0 0-.635.635z" class="cls-3" transform="translate(-327.144 -110.208)"/>
            </g>
            <g id="Group_506" transform="translate(19.105)">
                <path id="Path_330" d="M366.45 113.526h-2.207a1.033 1.033 0 0 1-1.032-1.032v-1.944a.341.341 0 0 1 .571-.252l2.9 2.635a.342.342 0 0 1-.23.594zm-2.556-2.2v1.172a.35.35 0 0 0 .35.349h1.324z" class="cls-3" transform="translate(-363.211 -110.208)"/>
            </g>
            <g id="Group_507" transform="translate(6.818 20.132)">
                <path id="Path_331" d="M345.1 163.537h-13.68a.341.341 0 1 1 0-.683h13.68a.341.341 0 0 1 0 .683z" class="cls-3" transform="translate(-331.078 -162.854)"/>
            </g>
            <g id="Group_508" transform="translate(6.422 22.274)">
                <path id="Path_332" d="M344.856 169.139h-14.473a.341.341 0 0 1 0-.683h14.473a.341.341 0 0 1 0 .683z" class="cls-3" transform="translate(-330.042 -168.456)"/>
            </g>
            <g id="Group_509" transform="translate(3.244 4.099)">
                <path id="Path_333" d="M324.143 124.967h-2.07a.341.341 0 0 1-.341-.341v-2.332a1.367 1.367 0 0 1 1.366-1.366h1.045a.342.342 0 0 1 .341.341v3.356a.342.342 0 0 1-.341.342zm-1.728-.683h1.385v-2.673h-.7a.684.684 0 0 0-.683.683z" class="cls-3" transform="translate(-321.732 -120.928)"/>
            </g>
            <g id="Group_510" transform="translate(22.003 4.094)">
                <path id="Path_334" d="M373.2 124.954h-2.07a.342.342 0 0 1-.341-.341v-3.356a.341.341 0 0 1 .341-.341h1.045a1.367 1.367 0 0 1 1.366 1.366v2.332a.342.342 0 0 1-.341.34zm-1.728-.683h1.387v-1.99a.684.684 0 0 0-.683-.683h-.7z" class="cls-3" transform="translate(-370.788 -120.915)"/>
            </g>
        </g>
    </g>
</svg>
