<svg width="472" height="472" fill="none" xmlns="http://www.w3.org/2000/svg">
    <path d="M168.761 280.219c-8.568 4.902-15.72 11.562-23.379 17.418-18.61 14.229-39.039 22.513-60.689 27.266l-30.441 6.705c-1.31.416-2.68.603-4.053.552-3.74-.522-5.2-3.979-2.831-7.45 10.639-15.436 20.503-31.573 33.317-44.923 14.23-14.795 27.744-30.515 41.542-45.861a4.853 4.853 0 0 0 1.639-4.053c-7.838-5.841-16.793-9.968-25.33-14.9-24.169-13.693-48.978-25.851-71.314-43.626-5.26-4.202-11.235-7.271-17.016-10.534a24.425 24.425 0 0 1-7.972-7.45c-4.201-5.96-2.294-11.533 4.187-12.665a35.583 35.583 0 0 1 5.499-.283 335.235 335.235 0 0 1 75.455 6.884c14.737 3.069 29.607 4.127 44.299 6.824 1.356-1.967.328-3.666-.209-5.349-8.895-28.593-17.478-57.215-24.928-86.195-3.949-15.407-8.389-30.694-9.834-46.83a76.351 76.351 0 0 1-.596-8.016c.09-5.736 3.382-8.076 7.986-5.602 4.277 2.31 7.45 6.198 10.177 10.623 6.869 11.086 13.5 22.35 20.667 33.197 12.352 18.61 24.273 37.666 37.921 55.173 4.769 6.109 8.419 13.41 12.651 20.085 1.043 1.639 1.49 3.993 3.65 4.47 1.744-.953 1.833-2.98 2.236-4.693a281.826 281.826 0 0 1 29.294-76.883c8.94-15.808 19.534-29.8 33.883-39.424A25.243 25.243 0 0 1 268.981 0c5.349 0 7.45 2.205 8.627 8.165 1.639 8.076.7 15.973-.805 23.84a7525.535 7525.535 0 0 0-9.223 49.571 5.962 5.962 0 0 0 .149 4.47c4.634-2.295 7.808-6.928 11.548-10.43 22.514-21.47 46.385-40.393 73.086-54.145a72.155 72.155 0 0 1 16.391-5.96 11.235 11.235 0 0 1 4.768-.224c2.98.626 4.336 3.427 2.98 6.616a52.725 52.725 0 0 1-4.977 8.641 308.987 308.987 0 0 0-21.561 36.37c-.998 2.012-2.592 3.845-1.49 7.167l22.232-3.471c18.431-2.876 36.818-5.96 55.28-8.538 10.43-1.49 20.622.82 30.68 3.725 3.531 1.013 7.584 2.056 8.314 7.197.805 5.572-2.488 8.94-5.96 11.756-8.121 6.72-17.24 11.234-26.284 15.838-19.371 9.879-38.741 19.817-57.322 31.528-2.146 1.356-5.498 2.116-5.498 5.349s3.352 4.053 5.424 5.498c16.777 11.622 33.764 22.871 49.946 35.64a316.222 316.222 0 0 1 36.64 34.031 52.845 52.845 0 0 1 8.806 12.322c2.473 5.036 1.341 8.076-3.502 9.446a39.213 39.213 0 0 1-21.814-.342 89235.589 89235.589 0 0 1-52.151-14.9c-2.429-.685-4.768-1.982-7.361-1.713-1.49 1.922-.239 3.576.298 5.244 4.723 14.9 9.521 29.651 14.215 44.506 11.071 35.178 18.044 71.518 22.559 108.574.715 5.96.849 11.562-3.77 15.228-4.932 3.918-10.341 4.052-15.66.625a132.69 132.69 0 0 1-25.539-20.621 184.494 184.494 0 0 1-33.213-50.987c-1.162-2.577-2.071-5.349-4.262-7.569-1.236 1.818-.357 3.606-.149 5.26 1.49 11.353-.506 22.498-1.683 33.643-2.399 22.574-8.717 43.895-16.853 64.442-7.45 18.669-16.882 35.759-30.277 49.377a38.034 38.034 0 0 1-6.05 5.29c-4.47 2.98-7.331 1.654-8.94-4.113a212.108 212.108 0 0 1-6.05-30.559c-3.218-26.045-6.749-52.03-9.595-78.119-1.625-14.9-2.087-29.949-3.174-44.923-.924-12.575-1.952-25.136-2.98-37.681a9.553 9.553 0 0 0-2.161-6.392c-3.621 8.314-6.988 16.39-10.654 24.406a675.431 675.431 0 0 1-35.194 65.395c-11.623 19.369-23.111 38.739-37.013 56.037a115.157 115.157 0 0 1-11.637 12.531 30.977 30.977 0 0 1-10.892 6.794c-5.588 1.893-9.045-.193-10.266-6.794-2.504-13.41-4.247-26.968-3.115-40.766 2.682-32.6 10.893-63.055 26.136-90.724 2.831-5.215 5.855-10.251 8.776-15.332zm-107.76 39.529a4.35 4.35 0 0 0 4.366.715c7.227-1.49 14.498-2.816 21.65-4.693 11.668-2.98 23.2-6.586 34.182-12.307 17.374-9.044 32.378-22.35 47.249-35.864 4.872-4.47 9.804-8.865 14.9-13.097 2.295-1.922 4.992-3.397 7.451-.328 2.458 3.07.491 5.409-1.058 7.793-2.98 4.47-5.856 8.94-8.732 13.484-14.319 22.499-27.268 45.802-33.556 73.381-5.259 23.05-8.538 46.19-4.097 69.955 1.371 7.449 1.847 7.718 7.45 3.62a77.598 77.598 0 0 0 14.9-15.376 422.306 422.306 0 0 0 25.227-37.25c15.094-24.346 29.651-49.169 42.034-75.526 5.721-12.233 10.892-24.823 16.39-37.25 1.356-2.98 2.891-6.853 6.377-6.407 3.77.492 3.711 4.783 4.247 8.18a460.721 460.721 0 0 1 4.857 47.933 1171.593 1171.593 0 0 0 8.777 93.6c2.518 18.55 4.068 37.249 8.001 55.546.388 1.803.358 3.785 2.578 5.275a98.128 98.128 0 0 0 17.88-22.633c16.614-28.503 26.329-60.061 29.801-94.211.79-7.658 2.042-15.421 1.103-23.244-1.49-11.919-2.98-23.914-4.47-35.878a64.63 64.63 0 0 1-.492-7.197 4.469 4.469 0 0 1 3.189-4.648c1.818-.522 3.218.67 4.038 2.324a111.596 111.596 0 0 1 4.351 10.027 339.331 339.331 0 0 0 21.59 47.68c11.175 19.846 25.197 36.131 42.973 47.843 1.996 1.311 4.023 2.637 6.452 2.562a3.839 3.839 0 0 0 3.921-2.574 3.852 3.852 0 0 0 .191-1.657c.1-1.611.05-3.227-.149-4.828-2.905-20.859-5.96-41.823-10.549-62.355-6.318-28.101-14.901-55.278-23.707-82.41a108.742 108.742 0 0 1-4.053-14.513c-1.207-6.809 1.565-9.61 7.331-7.941 10.043 2.89 20.086 5.751 30.054 8.94 12.844 4.142 25.912 7.226 38.92 10.519 2.533.64 6.348 1.877 7.689-1.043 1.49-3.219-2.057-5.439-3.904-7.45a272.774 272.774 0 0 0-34.927-32.66c-17.88-14.125-36.684-26.567-55.31-39.306-8.776-5.96-11.13-10.981-.432-17.879 2.012-1.282 3.993-2.638 5.96-3.934 13.127-8.359 26.717-15.57 40.306-22.811a1802.616 1802.616 0 0 1 33.302-17.493 41.249 41.249 0 0 0 8.24-5.81c2.727-2.385 2.399-3.979-.924-5.424a10.62 10.62 0 0 0-2.652-.864c-8.419-1.297-16.867-2.98-25.331-1.654-18.446 2.771-36.863 5.721-55.28 8.627-8.657 1.37-17.27 3.099-25.957 4.112-5.885.685-7.599-2.488-5.379-8.79.343-.984.909-1.863 1.341-2.817a265.933 265.933 0 0 1 19.192-35.387c1.654-2.592 4.277-4.887 4.172-9.133-2.861-.596-5.2.79-7.45 1.892-4.857 2.429-9.655 5.066-14.304 7.957a344.737 344.737 0 0 0-68.542 56.484 77.893 77.893 0 0 1-7.018 6.497c-1.714 1.415-3.636 2.354-5.781.864-2.146-1.49-2.384-3.8-2.042-6.303.656-4.768 1.326-9.536 2.131-14.274 3.228-18.952 6.487-37.9 9.775-56.842.473-2.369.569-4.798.283-7.197-.671-4.812-2.205-5.96-6.124-4.365a36.78 36.78 0 0 0-8.493 5.08c-9.79 7.45-17.315 17.642-24.169 28.414a238.407 238.407 0 0 0-23.96 51.523c-4.783 14.051-11.22 27.699-10.236 43.731.179 2.876-1.326 5.96-4.098 6.765-2.771.804-4.917-.909-6.556-3.427a12.14 12.14 0 0 1-1.296-2.816c-4.187-12.71-11.295-23.497-18.685-33.614-15.303-21.068-29.771-42.941-43.956-65.052-5.32-8.3-10.341-16.852-15.512-25.33.358 13.857 3.874 26.64 7.003 39.485 7.853 32.287 17.628 63.845 27.551 95.358.954 2.98 2.325 5.96 2.98 8.94 1.163 4.976-1.4 7.956-5.632 6.764a44.812 44.812 0 0 1-4.47-2.101c-3.442-1.49-6.81-3.248-10.535-3.591a372.9 372.9 0 0 1-39.56-6.168 339.982 339.982 0 0 0-61.017-6.109H12.113a30.724 30.724 0 0 0 9.924 7.286 57.232 57.232 0 0 1 10.848 6.988c21.74 17.88 46.414 29.218 70.031 42.986 9.432 5.512 19.371 9.908 28.311 16.389 5.96 4.321 6.124 7.569.73 12.933-22.127 22.201-42.824 46.175-63.103 70.729-3.07 3.77-6.258 7.614-7.852 12.65z" fill="#E7DAD0"/>
</svg>
