<svg width="533" height="451" fill="none" xmlns="http://www.w3.org/2000/svg">
    <path d="M525.202 249.216a33.02 33.02 0 0 1-9.291 1.8c-17.548-1.112-35.149-1.985-52.644-4.076-16.273-1.959-32.467-5.055-48.82-4.896-7.54 0-15.079 0-22.618-.477-7.965-.45-9.106-2.646-6.584-13.816a1688.294 1688.294 0 0 0 14.787-73.764c5.468-30.807 11.176-61.51 13.964-93.19.96-8.51.871-17.106-.266-25.594-1.327-8.231-4.407-10.957-9.743-9.21a21.24 21.24 0 0 0-8.548 5.77 173.475 173.475 0 0 0-18.583 22.073 667.451 667.451 0 0 0-63.024 116.958c-6.504 15.192-12.955 30.411-19.512 45.55-4.194 9.74-5.495 10.269-12.026 3.811-5.787-5.717-11.495-11.513-17.548-16.648a307.356 307.356 0 0 0-56.997-37.054c-13.274-6.934-12.185-2.99-9.557-23.502 3.69-29.114 5.947-58.228 7.566-87.712a196.977 196.977 0 0 0-.982-32.687c-1.832-16.754-8.601-21.412-18.318-13.234a87.923 87.923 0 0 0-13.857 17.071c-19.592 28.003-35.361 60.663-49.219 95.282-4.274 10.587-9.053 13.445-16.247 11.063a74.605 74.605 0 0 0-13.035-2.646c-13.114-1.88-26.07-5.664-39.29-6.432-6.69-.397-7.38-2.647-6.345-12.731 2.177-20.67 4.566-41.288 6.85-61.906a124.558 124.558 0 0 0 0-32.66C52.924.478 46.553-3.732 37.181 3.653A65.56 65.56 0 0 0 25.29 17.576 425.96 425.96 0 0 0 .866 56.165v20.274a361.084 361.084 0 0 1 32.44-52.564c3.213-4.235 6.797-11.778 10.885-8.972 4.088 2.805 1.885 12.016 2.124 18.368.956 26.89-4.115 52.722-6.53 79.031-.452 5.081-2.071 8.707-6.292 7.94-10.832-1.694-21.743-1.535-32.627-2.409v10.587c9.9.353 19.756 1.513 29.467 3.467 5.735 1.43 6.212 2.277 4.912 11.275-3.372 23.186-6.956 46.291-10.3 69.477-1.01 6.934-3.77 9.131-8.098 9.078H.92v10.004h9.265c2.199-.026 4.397.08 6.584.318 3.052.371 4.619 2.779 4.035 7.596-.345 2.806-.876 5.532-1.301 8.337-5.31 35.255-9.663 70.826-12.132 106.875a174.15 174.15 0 0 0-.266 21.385c.877 15.113 8.84 21.174 17.548 13.578a45.856 45.856 0 0 0 6.557-7.94 160.012 160.012 0 0 0 13.752-25.33c15.796-35.413 29.733-72.122 42.21-109.97 2.973-8.893 6.61-12.731 13.274-12.308 11.601.715 23.255 0 34.857.635 11.601.636 23.892 1.694 35.732 2.859 6.319.609 7.088 2.197 6.531 11.328 0 1.403-.372 2.805-.505 4.208-4.327 42.348-7.698 84.907-6.796 127.942a134.694 134.694 0 0 0 1.487 21.174c2.947 16.224 9.238 23.556 20.441 24.085 11.203.529 19.778-7.199 27.53-18.527a363.767 363.767 0 0 0 28.273-51.531c14.495-31.205 26.813-64.421 39.396-97.399 4.965-13.022 5.947-13.393 12.982-3.547 33.37 46.661 44.307 104.228 35.812 171.057-.478 3.732-1.141 7.464-1.247 11.222-.16 5.055-1.169 11.752 3.398 12.995 4.566 1.244 5.628-4.869 6.265-10.163.849-7.014 1.672-14.08 2.017-21.174a202.22 202.22 0 0 1 3.77-29.352c7.964-41.05 17.362-81.492 26.309-122.119 3.557-16.171 3.291-15.88 14.176-16.436 18.875-.874 37.644 2.276 56.439 3.229a314.957 314.957 0 0 1 37.512 4.685c13.751 2.382 27.636-.397 41.334 3.308 3.026.82 6.026-1.562 5.84-6.908-.212-5.849-3.159-7.543-6.796-6.617zM130.709 126.7c4.991-12.096 10.353-23.821 15.928-35.413a373.456 373.456 0 0 1 37.565-63.654c2.92-3.97 6.052-10.586 10.273-7.755 4.222 2.832 2.655 10.958 2.921 16.913.239 4.711 0 9.502 0 14.266a701.302 701.302 0 0 1-4.195 65.215c-1.062 9.846-1.911 19.771-3.371 29.458-1.46 9.687-3.159 11.539-9.159 8.946a410.748 410.748 0 0 0-46.723-15.881c-5.363-1.773-6.319-4.737-3.266-12.148l.027.053zm-50.28 114.02c-.638 2.171-1.195 4.42-1.939 6.485-12.583 35.148-25.352 70.111-40.086 103.222a136.435 136.435 0 0 1-15.345 26.97c-1.646 2.143-3.504 4.658-5.867 3.096-2.362-1.561-2.097-5.452-2.256-8.734a331.567 331.567 0 0 1 2.495-48.302c2.655-27.685 7.221-54.999 10.911-82.472.93-6.802 3.717-9.422 7.965-9.343h19.777v.529h20.734c3.849.186 5.177 3.044 3.584 8.496l.026.053zm9.158-26.467c-1.779 5.294-4.354 7.676-8.283 7.543-7.22-.185-14.442 0-21.662 0v-.132c-7.221 0-14.469.291-21.663 0-5.31-.265-6.08-1.932-4.911-9.687 3.477-23.185 7.061-46.344 10.619-69.529.955-6.432 2.814-9.581 7.831-8.708 18.37 3.176 36.795 5.452 55.086 9.766 5.442 1.271 6.345 3.865 3.716 11.54-6.902 19.612-13.884 39.304-20.76 59.101l.027.106zm83.093 13.101c-22.99-4.975-46.325.159-69.315-4.896-1.805-.397-3.796.265-5.31-2.514-.504-4.844 1.593-8.761 3-12.784a1715.187 1715.187 0 0 1 16.566-46.318c4.38-12.016 6.239-13.789 14.999-11.354 12 3.308 23.893 7.464 35.786 11.434 4.566 1.535 9.079 3.494 13.619 5.293 3.531 1.456 5.15 4.5 4.327 10.587-1.885 13.472-3.478 26.997-5.177 40.521-1.088 6.988-3.424 11.037-8.521 9.925l.026.106zm103.535 35.44c-5.814 15.748-11.628 31.522-17.867 46.926-11.787 29.114-24.131 57.831-39.449 83.213a115.55 115.55 0 0 1-12.663 16.939 16.829 16.829 0 0 1-6.328 4.832 16.874 16.874 0 0 1-7.848 1.387c-7.593-.449-11.522-5.293-13.274-16.33a186.04 186.04 0 0 1-1.141-35.466c.238-5.293.451-10.428.584-13.736a732.899 732.899 0 0 1 6.159-93.958c1.858-16.145 2.203-16.251 12.583-16.251a547.801 547.801 0 0 1 64.749 5.055c2.814.318 5.655.45 8.469.556 12.052.397 12.132.45 6.105 16.727l-.079.106zm-27.052-29.908c-14.362-2.488-28.751-1.747-43.113-2.461-18.317-.927-19.167-2.435-15.344-29.617.982-6.961 2.097-13.869 2.894-20.883.69-6.114 2.654-8.099 6.504-5.955 7.645 4.182 15.45 7.808 23.016 12.228a255.203 255.203 0 0 1 52.643 40.283 14.991 14.991 0 0 1 6.027 10.057c-11.442-3.043-22.061-1.932-32.547-3.758l-.08.106zm120.472 31.416c-4.168 19.401-8.655 38.642-12.849 58.016-3 13.79-5.097 28.029-9.69 41.713-5.761-44.571-17.84-83.742-40.883-114.894h39.237c5.952-.155 11.908.022 17.84.529 7.672.953 8.734 3.52 6.345 14.636zm10.061-48.858c-.504 2.25-1.062 4.473-1.513 6.749-3.451 17.204-3.424 17.469-14.76 17.019-19.459-.768-38.892-1.8-58.404-2.912-7.142-.397-7.964-2.461-4.062-11.778 22.963-55.237 46.75-109.6 77.916-155.415 7.593-11.169 15.424-22.047 26.149-30.596a82.641 82.641 0 0 1 .452 23.556c-6.088 52.087-14.681 103.213-25.778 153.377z" fill="#E7DAD0"/>
</svg>
