<svg width="289" height="281" fill="none" xmlns="http://www.w3.org/2000/svg">
    <path d="M7.098 174.585C.264 146.161-1.778 120.63 1.596 94.731c1.418-10.92 2.342-21.927 5.48-32.61a47.684 47.684 0 0 1 8.726-17.072 158.36 158.36 0 0 1 34.686-31.834 87.56 87.56 0 0 0 7.823-5.913A28.983 28.983 0 0 1 77.245.266 416.743 416.743 0 0 1 181.11 9.654c28.731 6.125 54.178 22.736 71.416 46.617a180.194 180.194 0 0 1 19.879 32.87 134.06 134.06 0 0 1 9.757 36.863c1.031 7.532 2.149 15.107 3.61 22.531a143.03 143.03 0 0 1 2.88 40.165 26.926 26.926 0 0 1-3.376 11.256 26.808 26.808 0 0 1-7.842 8.729 107.365 107.365 0 0 1-15.947 10.446c-10.745 5.439-21.34 10.985-32.022 16.467a581.7 581.7 0 0 1-55.876 24.604 960.992 960.992 0 0 1-38.513 13.726c-13.26 4.317-26.928 7.295-41.327 5.59-9.306-1.122-18.805-.777-28.153-2.374a22.57 22.57 0 0 1-14.85-8.806 68.726 68.726 0 0 1-11.413-19.122 23.128 23.128 0 0 0-3.008-5.611 169.41 169.41 0 0 1-20.632-41.243c-3.653-10.187-7.414-20.417-8.596-27.777zm24.048 9.669a213.652 213.652 0 0 0 10.875 35.568 141.793 141.793 0 0 0 11.841 25.531c5.33 8.353 12.143 13.511 23.49 12.95 13.131-.583 25.983-3.173 39.05-4.079 13.066-.907 26.369-3.216 39.522-5.051a114.015 114.015 0 0 0 15.559-2.784 138.513 138.513 0 0 0 15.324-5.784 566.396 566.396 0 0 0 54.007-26.179 37.008 37.008 0 0 0 13.303-11.007 57.973 57.973 0 0 0 10.23-26.827 265.997 265.997 0 0 0 .515-52.639c-.773-9.539-2.901-18.906-3.46-28.488a12.726 12.726 0 0 0-1.246-4.576 193.066 193.066 0 0 0-14.593-27.646C238.192 52.452 229.23 42.89 216.4 38.035a262.916 262.916 0 0 0-110.035-16.273 123.049 123.049 0 0 0-34.214 6.712C58.182 33.438 47.157 42.416 37.53 53.228c-7.2 8.072-13.002 16.813-13.11 28.057 0 2.31-.494 4.597-.666 6.907a334.431 334.431 0 0 0 7.393 96.062z" fill="#E7DAD0"/>
</svg>
