<svg width="235" height="505" fill="none" xmlns="http://www.w3.org/2000/svg">
    <g clip-path="url(#a)" fill="#EEE6DF">
        <path d="M46.921 72.847c8.283-.255 14.923 1.587 21.344 6.104a18.527 18.527 0 0 1 6.189 7.183c3.112 6.185 2.846 13.46-1.018 17.26-3.47 3.371-6.837 7.205-10.643 8.781a24.872 24.872 0 0 1-20.985-.51c-2.834-1.355-5.402-3.974-7.681-7.692-3.02-4.912-3.182-11.584-2.684-18.43.497-6.847 3.054-9.268 5.98-10.936 3.61-2.027 7.312-1.621 9.498-1.76zM204.633 84.234c3.968.162 7.034-.174 10.03 1.46a11.205 11.205 0 0 1 4.778 4.424c2.88 4.958 2.672 12.013-.845 14.538-9 6.441-18 6.395-26.607-2.988-2.245-2.445-2.314-6.441-.579-10.426 1.736-3.985 4.339-5.549 6.941-6.255a34.207 34.207 0 0 1 6.282-.753zM153.813 190.923c2.896-.065 5.712.96 7.89 2.873 2.14 1.714 3.331 4.634 3.331 9.51 0 4.877-1.237 7.739-3.389 9.407a15.712 15.712 0 0 1-9.903 3.348c-3.343 0-6.698-1.159-10.006-2.19a9.14 9.14 0 0 1-4.743-4.46c-2.534-4.425-2.314-10.032.694-13.206a8.241 8.241 0 0 1 3.158-2.166c3.956-1.413 7.878-2.896 12.968-3.116zM87.492 183.428c-3.309-.811-7.208-.66-10.863-3.475-2.927-2.317-3.922-5.282-3.876-10.82.047-5.537 1.076-8.444 4.27-9.997 6.35-3.081 12.725-3.104 18.983 1.159 2.406 1.645 4.315 4.332 4.292 10.228 0 5.271-1.03 7.831-4.246 10.148a15.408 15.408 0 0 1-8.56 2.757zM98.528 253.002c-4.627.301-9.058-.22-13.338-3.313-3.598-2.595-5.391-6.267-4.928-10.159.694-5.792 3.297-6.731 5.622-7.414 7.913-2.317 15.663-.869 23.137 5.039 1.689 1.332 3.297 3.163 3.158 7.46a6.762 6.762 0 0 1-3.297 6.14c-3.413 2.641-6.883 2.444-10.354 2.247zM134.297 133.79c-6.825.591-13.431-1.911-19.897-5.966-1.735-1.088-4.223-1.841-3.945-6.857.22-4.008 2.406-4.808 4.118-5.503 10.238-4.216 20.095-.706 29.743 6.337a5.734 5.734 0 0 1 2.522 5.178c0 3.695-1.678 4.205-3.008 5.224-3.101 2.387-6.351 1.24-9.533 1.587zM95.185 409.816c-4.038-.07-7.416-.232-10.643-2.479a12.243 12.243 0 0 1-4.234-4.437c-2.43-4.529-2.013-10.286.971-13.252 2.684-2.664 5.657-2.236 8.503-2.56 5.553-.626 10.863 1.517 15.733 7.089a8.68 8.68 0 0 1 2.118 3.401 8.685 8.685 0 0 1 .369 3.99 6.43 6.43 0 0 1-3.054 5.479 14.86 14.86 0 0 1-9.763 2.769zM163.392 362.402c2.88 0 5.784 0 8.56 1.749a9.882 9.882 0 0 1 4.119 4.704c2.313 5.108 1.642 11.746-1.551 13.9-6.941 4.553-13.882 3.846-20.649-1.656-1.921-1.552-3.158-4.529-3.147-8.85 0-4.634 1.759-6.406 3.633-7.808 2.938-2.236 5.992-1.853 9.035-2.039zM35.77 314.768c-5.195.151-9.88.568-14.392-2.421-1.77-1.158-4.234-1.772-4.083-6.695.138-4.634 2.487-5.665 4.35-6.244 8.85-2.722 17.618-.938 26.329 2.606.507.253.966.594 1.353 1.008a5.147 5.147 0 0 1 1.77 4.078 5.02 5.02 0 0 1-1.665 4.251 10.853 10.853 0 0 1-6.942 3.394c-2.417.081-4.835.023-6.72.023zM219.186 142.699a13.514 13.514 0 0 1 10.886 2.641 12.105 12.105 0 0 1 3.806 4.101c1.654 3.127 1.538 6.406-.463 8.502a12.503 12.503 0 0 1-4.084 2.746c-6.108 2.826-12.1 1.019-18.035-2.248a8.585 8.585 0 0 1-2.603-2.421 8.115 8.115 0 0 1 .185-10.425 7.721 7.721 0 0 1 5.044-2.838 40.032 40.032 0 0 1 5.264-.058zM102.692 50.362a15.65 15.65 0 0 1-11.279-3.811c-1.62-1.367-3.54-2.804-3.47-7.055.07-4.252 2.036-5.56 3.748-6.313 7.346-3.256 14.622-2.248 21.818 1.98.16.11.308.24.44.383a6.949 6.949 0 0 1 2.66 6.047 5.584 5.584 0 0 1-2.637 4.958c-3.621 2.71-7.346 4.123-11.28 3.81zM25.497 205.102c-4.28-.996-8.572-1.935-12.853-3.024a7.325 7.325 0 0 1-2.765-1.505c-1.434-1.159-3.39-2.039-3.088-6.152.266-3.672 2.059-4.761 3.632-5.247 2.846-.881 5.726-2.004 8.572-1.773a35.349 35.349 0 0 1 13.28 3.742 9.99 9.99 0 0 1 3.136 2.317 5.467 5.467 0 0 1 1.132 5.974 5.469 5.469 0 0 1-1.201 1.764 13.724 13.724 0 0 1-9.845 3.904zM158.394 63.776a16.253 16.253 0 0 1-10.747-4.043 7.87 7.87 0 0 1-2.73-7.008c.15-3.313 1.515-4.807 2.915-5.641 6.64-3.95 13.234-3.476 19.747 1.25a7.54 7.54 0 0 1 1.655 1.9c2.464 3.754 2.313 7.588-.521 9.963a14.46 14.46 0 0 1-10.319 3.58zM218.504 19.56c-4.015-.14-7.034-.707-9.868-3.186-1.701-1.494-3.043-3.915-2.938-7.935.092-3.811 1.677-5.282 3.227-6.209 5.53-3.267 11.048-2.838 16.508.695a6.601 6.601 0 0 1 2.036 2.41c2.152 4.066 1.724 8.861-1.006 11.236a10.889 10.889 0 0 1-7.959 2.989zM46.632 440.664c-3.563.081-6.94-.336-10.053-3.046a7.813 7.813 0 0 1-2.903-6.8c0-3.835 1.538-5.596 3.1-6.406 6.143-3.163 12.297-3.325 18.347.95 1.55 1.1 2.893 3.116 2.939 6.823 0 4.077-1.62 5.143-3.135 6.185a12.052 12.052 0 0 1-8.295 2.294zM122.544 460.67c2.096.15 4.182.42 6.247.811a9.254 9.254 0 0 1 5.425 3.684c2.453 3.289 2.395 6.776-.162 9.348a7.05 7.05 0 0 1-2.73 1.842c-5.437 1.761-10.863 1.853-16.196-1.159a8.465 8.465 0 0 1-2.637-2.316 7.073 7.073 0 0 1 .173-8.99 7.166 7.166 0 0 1 4.628-2.652 50.11 50.11 0 0 1 5.286 0l-.034-.568zM207.618 504.006a13.871 13.871 0 0 1-8.526-3.244 7.147 7.147 0 0 1-2.398-2.922 7.171 7.171 0 0 1-.576-3.738c.116-3.476 1.608-4.704 2.997-5.468 5.865-3.22 11.742-3.475 17.537.556 1.527 1.066 3.078 2.711 2.927 6.672a5.978 5.978 0 0 1-3.008 5.468 14.285 14.285 0 0 1-8.953 2.676zM70.764 357.768c-3.69.209-7.531.093-11.152-3.081a5.568 5.568 0 0 1-2.44-5.178c.069-3.105 1.364-4.332 2.602-4.877 7.138-3.186 14.264-3.267 21.286 1.321a5.066 5.066 0 0 1 2.314 4.471 5.404 5.404 0 0 1-2.442 5.143c-3.227 2.607-6.617 2.283-10.168 2.201zM19.365 44.917c-3.563.058-6.767-.07-9.798-2.537a5.929 5.929 0 0 1-2.626-5.027c-.116-3.047 1.064-4.634 2.314-5.468 6.744-4.842 13.477-4.518 20.152.533a5.791 5.791 0 0 1 2.036 4.854 5.474 5.474 0 0 1-2.488 5.12 13.209 13.209 0 0 1-9.59 2.525zM132.192 307.366c-4.037.325-7.971-1.042-11.696-4.367a5.621 5.621 0 0 1-2.221-4.634c-.069-3.127 1.157-4.633 2.407-5.247 7.045-3.475 13.986-3.244 20.684 2.942a5.468 5.468 0 0 1 1.862 4.993 4.633 4.633 0 0 1-2.452 4.054 12.205 12.205 0 0 1-8.584 2.259zM12.598 156.901c-3.783.197-7.138-.081-10.308-2.792a5.525 5.525 0 0 1-2.313-4.483c-.127-3.058 1.041-4.727 2.313-5.41 6.294-3.475 12.61-3.869 18.845.614 1.157.846 2.453 2.189 2.314 5.375a5.193 5.193 0 0 1-2.314 4.414 10.914 10.914 0 0 1-8.537 2.282zM178.257 179.953c-3.748 0-7.277-.336-10.597-3.221a5.465 5.465 0 0 1-2.313-4.494c-.116-3.186 1.157-4.634 2.394-5.167 6.536-2.896 13.049-3.278 19.389 1.889a5.088 5.088 0 0 1 1.92 4.853 4.318 4.318 0 0 1-2.047 3.615 11.315 11.315 0 0 1-8.746 2.525zM199.381 248.785a11.651 11.651 0 0 1 9.081 3.313 5.668 5.668 0 0 1 2.001 4.854 5.013 5.013 0 0 1-2.175 4.53c-5.448 4.123-10.955 4.367-16.461.579-1.389-.962-2.731-2.688-2.719-6.024a5.88 5.88 0 0 1 2.869-5.595c2.302-1.668 4.72-1.587 7.404-1.657zM186.309 446.723c-3.598 0-6.814 0-9.752-3.07a5.8 5.8 0 0 1-1.817-5.016 4.792 4.792 0 0 1 1.886-3.962c6.478-3.776 12.945-3.915 19.215 1.356 2.186 1.83 2.059 5.606-.069 7.784-3.101 3.163-6.49 3.07-9.463 2.908zM83.27 312.672a13.544 13.544 0 0 1 8.942 3.07 5.788 5.788 0 0 1 2.14 4.703c.104 2.884-1.065 3.718-2.129 4.425a14.307 14.307 0 0 1-16.092.544c-1.4-.787-2.903-2.096-2.903-5.549a5.79 5.79 0 0 1 2.904-5.56c2.313-1.633 4.72-1.598 7.137-1.633zM143.922 250.361c2.869.081 5.784-.243 8.48 2.062a4.9 4.9 0 0 1 1.989 4.703 3.866 3.866 0 0 1-2.012 3.545c-5.148 3.475-10.343 3.371-15.525.428-1.25-.718-2.522-1.981-2.314-5.143a4.988 4.988 0 0 1 2.314-4.298c2.267-1.679 4.685-1.019 7.068-1.297zM219.279 373.164c-2.811 0-5.206-.348-7.462-2.236a5.247 5.247 0 0 1-1.99-4.773c.081-2.096.856-3.683 1.793-4.112 5.172-2.317 10.412-3.904 15.479.545a5.015 5.015 0 0 1 1.336 1.927 5.02 5.02 0 0 1 .318 2.324 4.065 4.065 0 0 1-1.885 3.776c-2.592 1.807-5.229 2.931-7.589 2.549z"/>
    </g>
    <defs>
        <clipPath id="a">
            <path fill="#fff" transform="translate(0 .006)" d="M0 0h235v504H0z"/>
        </clipPath>
    </defs>
</svg>
