<svg width="46" height="46" viewBox="0 0 46 46" fill="none" xmlns="http://www.w3.org/2000/svg">
    <path fill-rule="evenodd" clip-rule="evenodd" d="M23 42.461c10.748 0 19.461-8.713 19.461-19.461C42.461 12.25 33.748 3.538 23 3.538 12.25 3.538 3.538 12.251 3.538 23 3.538 33.748 12.251 42.46 23 42.46zm2.916-21.436a4.718 4.718 0 1 1-5.243-7.845 4.718 4.718 0 0 1 5.243 7.845zm5.29 12.245a1.18 1.18 0 0 1-.835.345H16.218a1.18 1.18 0 0 1-1.18-1.18 8.256 8.256 0 0 1 16.513 0c0 .313-.124.613-.346.834z" fill="#8F9BBA"/>
    <circle cx="23" cy="23" r="22.5" stroke="#DCDFE6"/>
</svg>
