<svg width="24" height="24" viewBox="0 0 24 24" fill="none" xmlns="http://www.w3.org/2000/svg">
    <path d="m19.547 14.886-1.701-1.629V9.244a5.997 5.997 0 0 0-1.533-4.077 6.57 6.57 0 0 0-3.967-2.115 6.674 6.674 0 0 0-2.677.208 6.465 6.465 0 0 0-2.35 1.242 6.098 6.098 0 0 0-1.602 2.053 5.823 5.823 0 0 0-.571 2.5v4.202l-1.701 1.63c-.214.206-.359.468-.417.753a1.41 1.41 0 0 0 .09.848c.118.268.315.497.568.659.253.161.55.248.855.25h3.175v.306a3.39 3.39 0 0 0 1.175 2.39 3.737 3.737 0 0 0 2.605.904c.96.039 1.896-.286 2.604-.903a3.39 3.39 0 0 0 1.176-2.391v-.306h3.175c.304-.002.602-.089.855-.25.253-.162.45-.391.567-.66a1.41 1.41 0 0 0 .09-.847 1.454 1.454 0 0 0-.416-.754zm-6.161 2.817c-.053.433-.278.83-.63 1.108a1.836 1.836 0 0 1-1.26.386 1.836 1.836 0 0 1-1.26-.386 1.67 1.67 0 0 1-.63-1.108v-.306h3.78v.306zm-8.023-2.106 1.115-1.062c.177-.167.317-.366.413-.586.096-.219.145-.454.145-.692V9.055c0-.608.137-1.208.401-1.76a4.28 4.28 0 0 1 1.13-1.444 4.472 4.472 0 0 1 1.645-.897 4.624 4.624 0 0 1 1.889-.156 4.65 4.65 0 0 1 2.793 1.518 4.246 4.246 0 0 1 1.062 2.892v4.05c-.002.236.046.471.14.69.094.22.233.419.408.587l1.124 1.062H5.363z" fill="#3E4451"/>
    <circle cx="16" cy="6" r="3.5" fill="#EC6673" stroke="#fff"/>
</svg>
