<svg width="20" height="20" viewBox="0 0 20 20" fill="none" xmlns="http://www.w3.org/2000/svg">
    <path d="M10 1.667a8.333 8.333 0 1 1 0 16.667 8.333 8.333 0 0 1 0-16.667zm0 1.25a7.083 7.083 0 1 0 0 14.167 7.083 7.083 0 0 0 0-14.167zM8.958 11.2l3.725-3.725a.625.625 0 0 1 .944.814l-.06.07L9.4 12.526a.625.625 0 0 1-.814.06l-.07-.06-2.083-2.084a.625.625 0 0 1 .814-.944l.07.06L8.958 11.2l3.725-3.725L8.958 11.2z" fill="#529D59"/>
    <path d="M10 1.667a8.333 8.333 0 1 1 0 16.667 8.333 8.333 0 0 1 0-16.667zm0 1.25a7.083 7.083 0 1 0 0 14.167 7.083 7.083 0 0 0 0-14.167zM8.958 11.2l3.725-3.725a.625.625 0 0 1 .944.814l-.06.07L9.4 12.526a.625.625 0 0 1-.814.06l-.07-.06-2.083-2.084a.625.625 0 0 1 .814-.944l.07.06L8.958 11.2z" stroke="#529D59" stroke-width=".5"/>
</svg>
