<svg width="24" height="24" viewBox="0 0 24 24" fill="none" xmlns="http://www.w3.org/2000/svg">
    <path d="M12 2A10 10 0 0 0 2 12a9.89 9.89 0 0 0 2.26 6.33l-2 2a1 1 0 0 0-.21 1.09A1 1 0 0 0 3 22h9a10 10 0 0 0 0-20zm0 18H5.41l.93-.93a1 1 0 0 0 0-1.41A8 8 0 1 1 12 20z" fill="#3E4451"/>
    <path d="M6.5 12.144c0 .807.538 1.345 1.344 1.345.807 0 1.345-.538 1.345-1.345 0-.806-.538-1.344-1.345-1.344-.806 0-1.344.538-1.344 1.344zM10.656 12.144c0 .807.537 1.345 1.344 1.345s1.344-.538 1.344-1.345c0-.806-.537-1.344-1.344-1.344s-1.344.538-1.344 1.344zM14.811 12.144c0 .807.538 1.345 1.345 1.345.806 0 1.344-.538 1.344-1.345 0-.806-.538-1.344-1.344-1.344-.807 0-1.345.538-1.345 1.344z" fill="#3E4451"/>
</svg>
