<svg width="24" height="24" viewBox="0 0 24 24" fill="none" xmlns="http://www.w3.org/2000/svg">
    <path d="M20.06 3.94a3.208 3.208 0 0 1 0 4.536L9.331 19.206a2.018 2.018 0 0 1-.895.519l-4.586 1.25a.672.672 0 0 1-.826-.825l1.251-4.586c.092-.339.272-.647.52-.896L15.524 3.94a3.208 3.208 0 0 1 4.536 0zm-5.405 2.77-8.91 8.91a.672.672 0 0 0-.173.298l-.94 3.45 3.45-.94a.672.672 0 0 0 .299-.174l8.908-8.909-2.634-2.635zm1.82-1.82-.87.87 2.635 2.635.87-.87a1.863 1.863 0 0 0-2.635-2.635z" fill="#3E4451"/>
</svg>
