<svg width="24" height="24" viewBox="0 0 24 24" fill="none" xmlns="http://www.w3.org/2000/svg">
    <path d="M12 8.5a4.246 4.246 0 0 0-1.085.156 1.6 1.6 0 0 1 .252.844c0 .23-.05.457-.148.67a1.75 1.75 0 0 1-.422.567c-.18.163-.395.292-.63.38a2.09 2.09 0 0 1-1.682-.093c-.226.704-.2 1.454.075 2.144.274.69.783 1.284 1.454 1.7.67.414 1.47.63 2.283.613a4.162 4.162 0 0 0 2.251-.704 3.518 3.518 0 0 0 1.37-1.755c.24-.7.23-1.45-.03-2.145a3.545 3.545 0 0 0-1.418-1.724A4.18 4.18 0 0 0 12 8.5zm9.88 3.044C19.995 8.237 16.267 6 12 6c-4.268 0-7.997 2.239-9.88 5.544a.93.93 0 0 0 0 .912C4.005 15.763 7.733 18 12 18c4.268 0 7.997-2.239 9.88-5.544a.929.929 0 0 0 0-.912zM12 16.5c-3.425 0-6.566-1.719-8.261-4.5C5.434 9.219 8.574 7.5 12 7.5c3.426 0 6.566 1.719 8.261 4.5-1.695 2.781-4.835 4.5-8.261 4.5z" fill="#3E4451"/>
</svg>
