<svg width="24" height="24" viewBox="0 0 24 24" fill="none" xmlns="http://www.w3.org/2000/svg">
    <g clip-path="url(#knog1r1wta)">
        <path d="M21.813 18.719 3.125 4.109a.5.5 0 0 0-.703.079l-.312.39a.5.5 0 0 0 .078.703l18.687 14.61a.5.5 0 0 0 .703-.078l.313-.39a.502.502 0 0 0-.078-.704zM11.275 8.577l4.212 3.293a3.49 3.49 0 0 0-4.212-3.293zm1.45 6.846L8.514 12.13a3.491 3.491 0 0 0 4.213 3.293zM12 7.5c3.083 0 5.91 1.719 7.436 4.5a8.919 8.919 0 0 1-1.375 1.881l1.179.922a10.427 10.427 0 0 0 1.653-2.347 1.01 1.01 0 0 0 0-.912C19.197 8.237 15.842 6 12 6c-1.147 0-2.24.219-3.27.588l1.45 1.134A8.203 8.203 0 0 1 12 7.5zm0 9c-3.083 0-5.908-1.719-7.435-4.5a8.918 8.918 0 0 1 1.377-1.88l-1.18-.923a10.424 10.424 0 0 0-1.653 2.347 1.01 1.01 0 0 0 0 .912C4.804 15.763 8.16 18 12 18c1.147 0 2.241-.22 3.27-.588l-1.45-1.134A8.216 8.216 0 0 1 12 16.5z" fill="#3E4451"/>
    </g>
    <defs>
        <clipPath id="knog1r1wta">
            <path fill="#fff" transform="translate(2 4)" d="M0 0h20v16H0z"/>
        </clipPath>
    </defs>
</svg>
