<svg width="24" height="24" viewBox="0 0 24 24" fill="none" xmlns="http://www.w3.org/2000/svg">
    <path fill-rule="evenodd" clip-rule="evenodd" d="M7 1.25a.75.75 0 0 1 .75.75v20a.75.75 0 0 1-1.5 0V2A.75.75 0 0 1 7 1.25z" fill="#3E4451"/>
    <path fill-rule="evenodd" clip-rule="evenodd" d="M6.15 2a.85.85 0 0 1 1.7 0v20a.85.85 0 0 1-1.7 0V2zM7 1.35a.65.65 0 0 0-.65.65v20a.65.65 0 1 0 1.3 0V2A.65.65 0 0 0 7 1.35z" fill="#3E4451"/>
    <path fill-rule="evenodd" clip-rule="evenodd" d="M4 1.75a.75.75 0 0 1 .75.75v5c0 .462.134.764.304.977.18.224.436.394.734.518s.606.19.846.223a3.637 3.637 0 0 0 .353.032h.026l.071-.004a3.49 3.49 0 0 0 1.127-.251c.299-.124.555-.294.735-.518.17-.213.304-.515.304-.977v-5a.75.75 0 0 1 1.5 0v5c0 .788-.24 1.423-.633 1.914-.383.478-.877.777-1.329.966-.452.188-.894.28-1.216.324a5.16 5.16 0 0 1-.517.045h-.036l-.012.001h-.006L7 10v.75H6.944l-.118-.006a5.16 5.16 0 0 1-.399-.04 4.986 4.986 0 0 1-1.216-.324c-.452-.189-.946-.488-1.329-.966-.392-.49-.633-1.126-.633-1.914v-5A.75.75 0 0 1 4 1.75zm2.997 7.5zm.006 0zM19.75 1.25v10h-5.5V6c0-1.131.285-2.03.751-2.729a4.259 4.259 0 0 1 1.664-1.442 5.664 5.664 0 0 1 1.587-.506 5.66 5.66 0 0 1 .724-.073h.022S19 1.25 19 2v-.75h.75zm-1.5 1.6c-.279.063-.6.163-.915.32-.41.206-.799.503-1.086.934-.284.426-.499 1.027-.499 1.896v3.75h2.5v-6.9z" fill="#3E4451"/>
    <path fill-rule="evenodd" clip-rule="evenodd" d="M18.9 1.15h.95v10.2h-5.7V6c0-1.148.29-2.066.768-2.784A4.36 4.36 0 0 1 16.62 1.74a5.764 5.764 0 0 1 1.616-.516 5.754 5.754 0 0 1 .664-.071V1.15zm.2.85h-.2v-.647a5.562 5.562 0 0 0-.631.069c-.418.07-.985.21-1.56.497a4.16 4.16 0 0 0-1.624 1.408c-.454.681-.735 1.56-.735 2.673v5.15h5.3v-9.8h-.55V2zm-.75.726V9.85h-2.7V6c0-.886.22-1.507.516-1.952a2.862 2.862 0 0 1 1.125-.966c.324-.162.653-.264.938-.328l.121-.028zm-.2.252a3.859 3.859 0 0 0-.77.283c-.399.2-.772.485-1.047.898-.272.408-.483.99-.483 1.841v3.65h2.3V2.978z" fill="#3E4451"/>
    <path fill-rule="evenodd" clip-rule="evenodd" d="M19 1.25a.75.75 0 0 1 .75.75v20a.75.75 0 0 1-1.5 0V11.25H15a.75.75 0 0 1-.75-.75V6c0-1.131.285-2.03.751-2.729a4.259 4.259 0 0 1 1.664-1.442 5.664 5.664 0 0 1 1.587-.506 5.66 5.66 0 0 1 .724-.073H19V2v-.75zm-.75 1.6c-.279.063-.6.163-.915.32-.41.206-.799.503-1.086.934-.284.426-.499 1.027-.499 1.896v3.75h2.5v-6.9z" fill="#3E4451"/>
    <path fill-rule="evenodd" clip-rule="evenodd" d="M19 1.15c.47 0 .85.381.85.85v20a.85.85 0 0 1-1.7 0V11.35H15a.85.85 0 0 1-.85-.85V6c0-1.148.29-2.066.768-2.784A4.36 4.36 0 0 1 16.62 1.74a5.764 5.764 0 0 1 1.616-.516 5.754 5.754 0 0 1 .74-.073H19zm.1.208a.65.65 0 0 1 .55.642v20a.65.65 0 1 1-1.3 0V11.25a.1.1 0 0 0-.1-.1H15a.65.65 0 0 1-.65-.65V6c0-1.113.28-1.992.735-2.673A4.16 4.16 0 0 1 16.71 1.92a5.566 5.566 0 0 1 1.558-.497 5.562 5.562 0 0 1 .632-.069V2a.1.1 0 0 0 .2 0v-.642zm-.787 1.415a.1.1 0 0 1 .037.078v6.9a.1.1 0 0 1-.1.1h-2.5a.1.1 0 0 1-.1-.1V6c0-.887.22-1.508.516-1.953a2.862 2.862 0 0 1 1.125-.966c.324-.162.653-.264.938-.328a.1.1 0 0 1 .084.02zm-.163.205a3.859 3.859 0 0 0-.77.283c-.399.2-.772.485-1.047.898-.272.408-.483.99-.483 1.841v3.65h2.3V2.978z" fill="#3E4451"/>
</svg>
