<svg width="24" height="24" viewBox="0 0 24 24" fill="none" xmlns="http://www.w3.org/2000/svg">
    <g clip-path="url(#n9as1cprna)" fill="#3E4451">
        <path d="M2.952 20.988c0-.362.293-.655.655-.655h4.801a.655.655 0 1 1 0 1.31H3.607a.655.655 0 0 1-.655-.655zM13.647 20.988a.655.655 0 0 1-.511-.245l-2.122-2.653a1 1 0 0 0-.781-.376H3.607a.655.655 0 0 1 0-1.31h7.42a.654.654 0 0 1 .511.246l1.206 1.507a1 1 0 0 0 1.613-.07l2.673-4.01a.656.656 0 0 1 1.069-.03l1.468 1.958a1 1 0 0 0 .8.4h1.137a.655.655 0 1 1 0 1.31h-1.965a.656.656 0 0 1-.523-.263l-.561-.748a1 1 0 0 0-1.632.046l-2.632 3.947a.657.657 0 0 1-.516.29l-.028.001z" stroke="#3E4451" stroke-width=".2"/>
        <path fill-rule="evenodd" clip-rule="evenodd" d="M5.08 4.13a.083.083 0 0 0-.002.04c.13.903.456 1.883 1.051 2.598.56.672 1.387 1.15 2.674 1.076a5.4 5.4 0 0 1 .164-.735c-.008-.536-.143-1.088-.472-1.562C8.037 4.885 7.1 4.232 5.197 4.07A.118.118 0 0 0 5.1 4.1a.077.077 0 0 0-.018.029zm-.103 3.598c.832.999 2.068 1.678 3.773 1.62v3.223H3.825a.75.75 0 1 0 0 1.5h10.476a.75.75 0 0 0 0-1.5H10.25V9.41c1.31.12 2.363-.275 3.123-.95.895-.795 1.326-1.93 1.323-2.862-.002-.806-.656-1.305-1.274-1.39-1.523-.211-2.633.261-3.381 1.019a3.999 3.999 0 0 0-.313-.535c-.783-1.13-2.194-1.93-4.403-2.119-1.003-.085-1.883.757-1.731 1.81.153 1.061.548 2.341 1.383 3.344zm7.4-.388c-.422.374-1.053.658-1.967.58.027-.18.046-.368.053-.563.098-.277.233-.555.413-.802.416-.571 1.097-1.026 2.318-.864-.026.509-.287 1.177-.818 1.649z"/>
    </g>
    <defs>
        <clipPath id="n9as1cprna">
            <path fill="#fff" transform="translate(2 2)" d="M0 0h20.952v20H0z"/>
        </clipPath>
    </defs>
</svg>
