<svg width="24" height="24" viewBox="0 0 24 24" fill="none" xmlns="http://www.w3.org/2000/svg">
    <path fill-rule="evenodd" clip-rule="evenodd" d="M17.545 2.447c1.96.215 3.513 1.78 4.171 3.663.533 1.526.564 3.253.14 4.814a10.09 10.09 0 0 1-.483 1.38c-1.184 3.483-4.215 5.757-7.199 7.519-.36.235-4.592 2.531-4.719 1.522 0-.365.146-.67.288-.969.154-.322.303-.635.26-1.001a2.611 2.611 0 0 0-.434-1.82 4.172 4.172 0 0 0-.62-.718c-.651-.508-1.375-.94-2.095-1.37-.21-.126-.419-.25-.625-.377-.308-.187-.61-.38-.902-.58-2.889-1.662-3.423-5.293-2.538-8.246.1-.3.219-.596.357-.88.137-.285.297-.558.48-.815.626-.872 1.464-1.58 2.465-1.92.547-.187 1.124-.244 1.696-.249.66-.004 1.337.065 1.961.302 1.036.396 1.82 1.155 2.53 2.005.576-.698 1.218-1.375 2.019-1.779 1.019-.514 2.137-.588 3.248-.481zm2.447 3.926c.104.298.165.61.18.926V7.3a3.3 3.3 0 0 1-.028.762c-.03.413-.22.881-.593.974-.187-.938-.56-1.876-1.358-2.457a4.06 4.06 0 0 0-.771-.45c-1.1-.491-2.457-.564-3.674-.376-.188.094-.56-.093-.467-.375.28-.656.935-.936 1.59-1.125 1.685-.422 3.738 0 4.725 1.361a2.9 2.9 0 0 1 .396.76z" fill="#EC6673"/>
</svg>
