<svg width="24" height="24" viewBox="0 0 24 24" fill="none" xmlns="http://www.w3.org/2000/svg">
    <path d="M11.994 22.464c-2.731 0-3.053-.014-4.12-.062a7.176 7.176 0 0 1-2.426-.51 5.12 5.12 0 0 1-1.767-1.18 5.254 5.254 0 0 1-1.154-1.806 7.622 7.622 0 0 1-.465-2.481C2 15.338 2 14.98 2 12.212c0-2.8.014-3.126.062-4.21a7.62 7.62 0 0 1 .465-2.478 5.243 5.243 0 0 1 1.154-1.808 5.11 5.11 0 0 1 1.77-1.178 7.12 7.12 0 0 1 2.426-.477C8.937 2 9.286 2 11.994 2c2.755 0 3.071.015 4.12.061.831.016 1.655.177 2.432.477a5.116 5.116 0 0 1 1.77 1.178c.504.515.897 1.13 1.154 1.808.297.806.456 1.657.468 2.516C22 9.127 22 9.482 22 12.25c0 2.769-.015 3.132-.062 4.206a7.636 7.636 0 0 1-.467 2.484 5.26 5.26 0 0 1-1.155 1.807 5.127 5.127 0 0 1-1.77 1.18 7.21 7.21 0 0 1-2.427.475c-1.06.062-1.408.062-4.125.062zm-.037-18.668c-2.717 0-2.999.014-4.06.063a5.437 5.437 0 0 0-1.854.352c-.433.17-.826.43-1.155.765a3.4 3.4 0 0 0-.753 1.178 5.792 5.792 0 0 0-.345 1.914c-.059 1.1-.059 1.388-.059 4.144 0 2.723.01 3.053.06 4.146.01.646.126 1.287.344 1.895a3.36 3.36 0 0 0 1.91 1.94c.593.227 1.22.347 1.853.354 1.075.063 1.358.063 4.059.063 2.724 0 3.006-.013 4.057-.063a5.408 5.408 0 0 0 1.855-.353c.43-.171.822-.432 1.15-.766a3.41 3.41 0 0 0 .749-1.173 5.8 5.8 0 0 0 .345-1.915h.012c.048-1.085.048-1.374.048-4.146s-.012-3.064-.06-4.148a5.852 5.852 0 0 0-.345-1.892 3.412 3.412 0 0 0-.75-1.176 3.326 3.326 0 0 0-1.149-.767 5.384 5.384 0 0 0-1.855-.352c-1.073-.063-1.354-.063-4.057-.063zm.037 13.657a5.056 5.056 0 0 1-2.853-.883 5.222 5.222 0 0 1-1.892-2.353 5.351 5.351 0 0 1-.294-3.03A5.282 5.282 0 0 1 8.36 8.5a5.101 5.101 0 0 1 2.629-1.437 5.032 5.032 0 0 1 2.966.297 5.16 5.16 0 0 1 2.305 1.932 5.327 5.327 0 0 1-.638 6.62 5.087 5.087 0 0 1-3.627 1.54zm0-8.653c-.659 0-1.303.2-1.85.574A3.39 3.39 0 0 0 8.917 10.9a3.472 3.472 0 0 0-.19 1.967c.129.66.446 1.267.912 1.743.466.476 1.06.8 1.706.931a3.266 3.266 0 0 0 1.924-.193 3.349 3.349 0 0 0 1.495-1.254 3.457 3.457 0 0 0-.416-4.296 3.304 3.304 0 0 0-2.354-1zm5.33-.81a1.175 1.175 0 0 1-.844-.36 1.238 1.238 0 0 1 .006-1.73c.225-.229.53-.357.848-.355.317 0 .621.13.845.361.224.23.349.542.347.866a1.237 1.237 0 0 1-.353.864c-.226.228-.53.356-.848.355z" fill="#3E4451"/>
</svg>
