<svg width="24" height="24" viewBox="0 0 24 24" fill="none" xmlns="http://www.w3.org/2000/svg">
    <path d="M18 19.5v-3.31a8.119 8.119 0 0 0 1.5-.59v3.9a3 3 0 0 1-3 3h-12a3 3 0 0 1-3-3v-9a3 3 0 0 1 3-3h3.033a8.356 8.356 0 0 0 0 1.5H4.5A1.5 1.5 0 0 0 3 10.5v1.11l7.5 4.038.816-.44c.516.33 1.071.604 1.656.813l-2.115 1.14a.75.75 0 0 1-.712 0L3 13.313V19.5A1.5 1.5 0 0 0 4.5 21h12a1.5 1.5 0 0 0 1.5-1.5z" fill="#3E4451"/>
    <path fill-rule="evenodd" clip-rule="evenodd" d="M15.5 15a6.5 6.5 0 1 0 0-13 6.5 6.5 0 0 0 0 13zm.781-9.78-.005-.004A.747.747 0 0 0 15.755 5h-.01a.747.747 0 0 0-.524.219l-3 3a.75.75 0 1 0 1.06 1.062L15 7.561v4.189a.75.75 0 1 0 1.5 0V7.56l1.719 1.721a.75.75 0 1 0 1.062-1.062l-3-3v.002z" fill="#529D59"/>
</svg>
