<svg width="20" height="20" viewBox="0 0 20 20" fill="none" xmlns="http://www.w3.org/2000/svg">
    <path d="M4.87 3.807a7.256 7.256 0 1 1 10.26 10.261l-.988.979c-.73.715-1.675 1.635-2.838 2.76a1.875 1.875 0 0 1-2.607 0l-2.91-2.83c-.365-.36-.671-.662-.918-.909a7.256 7.256 0 0 1 0-10.261zm9.377.884a6.006 6.006 0 1 0-8.494 8.494l1.24 1.223c.682.667 1.54 1.501 2.573 2.5a.625.625 0 0 0 .869 0l2.829-2.75c.39-.384.718-.709.983-.973a6.006 6.006 0 0 0 0-8.494zM10 6.666a2.501 2.501 0 1 1 0 5.002 2.501 2.501 0 0 1 0-5.002zm0 1.25a1.251 1.251 0 1 0 0 2.502 1.251 1.251 0 0 0 0-2.502z" fill="#3E4451" stroke="#3E4451" stroke-width=".3"/>
</svg>
