<svg width="22" height="22" viewBox="0 0 22 22" fill="none" xmlns="http://www.w3.org/2000/svg">
    <path d="M11.2 2a3.6 3.6 0 0 1 3.6 3.6v1.8h1.575c1.118 0 2.025.907 2.025 2.025v8.55A2.025 2.025 0 0 1 16.375 20H6.025A2.025 2.025 0 0 1 4 17.975v-8.55C4 8.307 4.907 7.4 6.025 7.4H7.6V5.6A3.6 3.6 0 0 1 11.2 2zm5.175 6.75H6.025a.675.675 0 0 0-.675.675v8.55c0 .373.302.675.675.675h10.35a.675.675 0 0 0 .675-.675v-8.55a.675.675 0 0 0-.675-.675zm-5.175 3.6a1.35 1.35 0 1 1 0 2.7 1.35 1.35 0 0 1 0-2.7zm0-9A2.25 2.25 0 0 0 8.95 5.6v1.8h4.5V5.6a2.25 2.25 0 0 0-2.25-2.25z" fill="#3E4451" stroke="#3E4451" stroke-width=".2"/>
</svg>
