<svg width="24" height="24" viewBox="0 0 24 24" fill="none" xmlns="http://www.w3.org/2000/svg">
    <path d="M16.097 2c-3.017 0-5.507 2.29-5.85 5.218l-6.798 9.616-.395.58.475.5.684.685L2 20.787 3.213 22l2.16-2.187 1.159 1.158.606-.421 9.67-6.799C19.727 13.4 22 10.912 22 7.902A5.914 5.914 0 0 0 16.097 2zm0 1.686a4.203 4.203 0 0 1 4.216 4.216 4.216 4.216 0 0 1-.686 2.319l-5.849-5.85a4.216 4.216 0 0 1 2.319-.685zm-3.531 1.897 5.85 5.85c-.69.45-1.496.688-2.319.685a4.203 4.203 0 0 1-4.216-4.216 4.216 4.216 0 0 1 .686-2.319h-.001zM10.51 9.747a5.96 5.96 0 0 0 3.715 3.741l-7.483 5.296L5.24 17.23l5.27-7.483z" fill="#3E4451"/>
</svg>
