<svg width="20" height="20" viewBox="0 0 20 20" fill="none" xmlns="http://www.w3.org/2000/svg">
    <path d="M11.548 16.004V18H9.77v-1.905c-1.522-.089-2.726-.523-3.77-1.597l1.527-1.547c.764.773 1.798 1.031 2.917 1.031 1.392 0 2.138-.532 2.138-1.513 0-.429-.118-.79-.373-1.03-.237-.224-.509-.345-1.069-.43l-1.46-.206c-1.034-.155-1.796-.481-2.34-1.015-.576-.584-.865-1.374-.865-2.406 0-1.915 1.228-3.327 3.295-3.644V2h1.778v1.717c1.228.13 2.19.551 3.035 1.379l-1.492 1.495c-.764-.74-1.68-.842-2.478-.842-1.255 0-1.865.704-1.865 1.547 0 .31.102.636.356.876.237.224.628.413 1.12.481l1.424.207c1.103.154 1.798.464 2.308.944.645.62.933 1.513.933 2.596 0 2-1.393 3.255-3.341 3.604z" fill="#3E4451"/>
</svg>
