<svg width="24" height="24" viewBox="0 0 24 24" fill="none" xmlns="http://www.w3.org/2000/svg">
    <path fill-rule="evenodd" clip-rule="evenodd" d="M6.333 10.17V4.408L12 1.141l5.666 3.266v5.764l5 2.882v6.54L17 22.86l-5-2.883-5 2.883-5.667-3.267v-6.54l5-2.882zm6.333 3.66v4.99L17 21.333l4.333-2.513v-4.994L17 11.333l-4.334 2.497zM12 12.667l4.333-2.5V5.181L12 2.667 7.666 5.181v4.99L12 12.667zm-5-1.334-4.334 2.493v4.994L7 21.333l4.333-2.513v-4.99L7 11.333z" fill="#3E4451" stroke="#3E4451" stroke-width=".5" stroke-linejoin="round"/>
</svg>
