<svg width="20" height="20" viewBox="0 0 20 20" fill="none" xmlns="http://www.w3.org/2000/svg">
    <path fill-rule="evenodd" clip-rule="evenodd" d="M5.085 2.243A1.175 1.175 0 0 0 3.91 3.418v13.726l1.725-1.15a.705.705 0 0 1 .89.088l1.381 1.382 1.382-1.382a.705.705 0 0 1 .997 0l1.382 1.382 1.381-1.382a.705.705 0 0 1 .89-.088l1.724 1.15V3.418a1.175 1.175 0 0 0-1.175-1.175H5.085zM3.257 1.59A2.585 2.585 0 0 1 5.085.833h9.402a2.586 2.586 0 0 1 2.586 2.585v15.043a.705.705 0 0 1-1.097.587l-2.34-1.56-1.47 1.472a.705.705 0 0 1-.998 0l-1.382-1.382-1.381 1.382a.705.705 0 0 1-.998 0l-1.471-1.472-2.34 1.56A.705.705 0 0 1 2.5 18.46V3.418c0-.685.272-1.343.757-1.828z" fill="#3E4451"/>
    <path fill-rule="evenodd" clip-rule="evenodd" d="M9.786 4.124c.39 0 .705.316.705.705v.705h1.176a.705.705 0 0 1 0 1.41h-1.88a.704.704 0 0 1-.236-.04.704.704 0 0 1-.235.04.705.705 0 1 0 0 1.41h.94a2.115 2.115 0 0 1 .235 4.219v.718a.705.705 0 1 1-1.41 0v-.705H7.906a.705.705 0 0 1 0-1.41h2.35a.705.705 0 0 0 0-1.41h-.94a2.115 2.115 0 0 1-.235-4.219V4.83c0-.39.316-.705.705-.705z" fill="#3E4451"/>
</svg>
