<svg width="24" height="24" viewBox="0 0 24 24" fill="none" xmlns="http://www.w3.org/2000/svg">
    <path d="m11.4 1.983.002-.001a1.24 1.24 0 0 1 .898.005l.01.003.008.004 6.645 2.491c.251.094.467.262.62.482l.74-.514-.74.514c.153.22.235.48.236.747V10.918c0 5.147-3.431 9.895-7.96 11.151C7.33 20.813 3.9 16.065 3.9 10.92V5.712c0-.549.338-1.038.86-1.24l6.64-2.49z" stroke="#3E4451" stroke-width="1.8"/>
    <path d="M10.65 14.75v-1.6h-1.6c-.637 0-1.15-.513-1.15-1.15 0-.637.513-1.15 1.15-1.15h1.6v-1.6c0-.637.513-1.15 1.15-1.15.637 0 1.15.513 1.15 1.15v1.6h1.6c.637 0 1.15.513 1.15 1.15 0 .264-.103.637-.387.896-.263.24-.773.462-1.765.264l-.598-.12v1.71c0 .637-.513 1.15-1.15 1.15-.637 0-1.15-.513-1.15-1.15z" fill="#3E4451"/>
</svg>
