<svg width="24" height="24" viewBox="0 0 24 24" fill="none" xmlns="http://www.w3.org/2000/svg">
    <path d="M18.572 5.869a7.124 7.124 0 0 0-13.144 0A6.778 6.778 0 0 0 1.5 11.98c-.01 3.638 2.944 6.675 6.572 6.769a6.741 6.741 0 0 0 3.178-.703v3.703a.75.75 0 0 0 1.5 0v-3.703a6.75 6.75 0 0 0 3 .703h.178c3.628-.094 6.581-3.131 6.572-6.769a6.778 6.778 0 0 0-3.928-6.112zm-2.681 11.38a5.269 5.269 0 0 1-3.057-.88l-.084-.057V12.46l4.087-2.034a.755.755 0 1 0-.674-1.35L12.75 10.79V8.25a.75.75 0 0 0-1.5 0v4.79l-3.412-1.715a.755.755 0 1 0-.675 1.35l4.087 2.034v1.603l-.084.057a5.27 5.27 0 0 1-3.057.88C5.288 17.176 2.991 14.813 3 11.982a5.278 5.278 0 0 1 3.056-4.753c.34-.158.61-.435.76-.778a5.625 5.625 0 0 1 10.368 0c.15.343.42.62.76.778A5.278 5.278 0 0 1 21 11.981c.01 2.831-2.288 5.194-5.11 5.269z" fill="#3E4451"/>
    <path fill-rule="evenodd" clip-rule="evenodd" d="M7.998 2.606A7.225 7.225 0 0 1 18.65 5.795a6.878 6.878 0 0 1 3.95 6.186c.01 3.692-2.986 6.774-6.669 6.87h-.181a6.851 6.851 0 0 1-2.9-.645v3.544a.85.85 0 1 1-1.7 0v-3.544a6.84 6.84 0 0 1-3.08.644c-3.683-.095-6.68-3.177-6.67-6.869a6.88 6.88 0 0 1 3.951-6.186 7.225 7.225 0 0 1 2.647-3.189zM18.572 5.87l-.092.039a7.025 7.025 0 0 0-12.96 0l-.014.035-.035.017a6.678 6.678 0 0 0-3.87 6.022c-.01 3.583 2.9 6.576 6.474 6.668a6.641 6.641 0 0 0 3.13-.692l.145-.072v3.864a.65.65 0 0 0 1.3 0v-3.864l.145.072c.918.455 1.93.692 2.955.692h.177c3.573-.093 6.483-3.085 6.473-6.668a6.678 6.678 0 0 0-3.87-6.022l.042-.091zM12 3.108a5.525 5.525 0 0 0-5.092 3.381v.001c-.16.366-.448.66-.81.829A5.179 5.179 0 0 0 3.1 11.982c-.009 2.777 2.245 5.095 5.012 5.168a5.169 5.169 0 0 0 2.999-.864l.04-.027v-1.487l-4.033-2.007a.856.856 0 0 1 .765-1.53l3.267 1.644V8.25a.85.85 0 0 1 1.7 0v2.379l3.268-1.643a.855.855 0 0 1 .765 1.529l-4.033 2.007v3.737l.04.027a5.17 5.17 0 0 0 2.998.864c2.768-.073 5.022-2.391 5.012-5.168a5.178 5.178 0 0 0-2.998-4.663 1.638 1.638 0 0 1-.809-.829A5.524 5.524 0 0 0 12 3.107zm3.894 14.242a5.368 5.368 0 0 1-3.115-.898l-.129-.086v-3.968l4.143-2.062a.654.654 0 1 0-.585-1.171l-3.558 1.788V8.25a.65.65 0 0 0-1.3 0v4.953l-3.557-1.788a.656.656 0 0 0-.585 1.17l4.142 2.063v1.718l-.128.086a5.369 5.369 0 0 1-3.115.898c-2.876-.076-5.216-2.483-5.207-5.369a5.38 5.38 0 0 1 3.114-4.843c.318-.148.57-.407.71-.727a5.725 5.725 0 0 1 10.553 0c.14.32.392.579.71.727A5.378 5.378 0 0 1 21.1 11.98c.01 2.885-2.33 5.293-5.206 5.37z" fill="#3E4451"/>
</svg>
