<svg width="20" height="20" viewBox="0 0 20 20" fill="none" xmlns="http://www.w3.org/2000/svg">
    <path d="M9.091 2.318a1.875 1.875 0 0 1 2.48.617l.069.115 6.465 11.673a1.875 1.875 0 0 1-1.511 2.78l-.129.004H3.535a1.875 1.875 0 0 1-1.7-2.664l.06-.12L8.36 3.05c.17-.308.424-.561.732-.732zm7.921 13.011L10.546 3.656A.625.625 0 0 0 9.5 3.582l-.047.074-6.464 11.673a.625.625 0 0 0 .468.923l.079.005h12.93a.625.625 0 0 0 .58-.856l-.034-.072-6.466-11.673 6.466 11.673zM10 13.334A.832.832 0 1 1 10 15a.832.832 0 0 1 0-1.665zm-.003-6.251c.316 0 .578.234.62.54l.005.084.003 3.752a.625.625 0 0 1-1.244.085l-.006-.085-.003-3.75c0-.346.28-.626.625-.626z" fill="#3E4451"/>
</svg>
