<svg width="32" height="32" fill="none" xmlns="http://www.w3.org/2000/svg">
    <g clip-path="url(#a)">
        <path d="M14.095 29.333c-.847 0-1.609-.265-2.205-.767-1.454-1.226-1.039-3.263-.242-4.635 1.654-2.845 4.456-5.093 7.245-7.097-.851-3.587-2.768-4.85-4.104-5.29.53 2.819-.202 5.831-1.933 7.913-.848 1.02-1.99 1.55-3.157 1.55a4.08 4.08 0 0 1-2.317-.741c-1.394-.955-2.265-2.389-2.454-4.036-.194-1.697.376-3.415 1.566-4.713 1.759-1.92 4.036-2.167 5.948-1.994C11.19 7.08 9.23 6.055 7.766 6.163c-1.145.084-2.407.848-3.75 2.269A.781.781 0 0 1 2.88 7.359C4.523 5.62 6.083 4.72 7.65 4.605c1.555-.115 3.066.492 4.37 1.755.94.911 1.731 2.123 2.259 3.448l.395.085c2.704.609 4.66 2.726 5.59 6.011.337-.217.674-.429 1.006-.637.75-.471 1.526-.958 2.25-1.478-1.722-2.018-4.312-5.863-2.613-9.215.613-1.212 1.734-1.907 3.074-1.907 1.7 0 3.452 1.125 4.165 2.676 1.277 2.777-.155 6.244-2.35 8.527.923.784 1.878 1.238 2.845 1.35a.781.781 0 0 1-.18 1.552c-1.341-.156-2.63-.778-3.84-1.853a8.458 8.458 0 0 1-.13.096c-.781.565-1.6 1.079-2.39 1.575-.488.307-.99.622-1.477.946.222 1.356.273 2.784.148 4.162-.243 2.67-1.37 4.918-3.17 6.328-1.045.819-2.357 1.307-3.508 1.307zm5.09-10.781c-2.435 1.787-4.797 3.774-6.186 6.164-.295.508-.481 1.068-.511 1.537-.031.494.102.86.41 1.118.314.265.717.4 1.197.4.79 0 1.788-.383 2.544-.975 1.459-1.142 2.374-3.003 2.578-5.24.088-.976.076-2.01-.031-3.004zm-7.72-7.508c-1.657 0-2.874.497-3.819 1.528-.884.965-1.309 2.233-1.166 3.48.137 1.19.77 2.23 1.786 2.925 1.127.773 2.488.565 3.388-.518 1.457-1.753 2.07-4.428 1.56-6.817a7.047 7.047 0 0 0-.114-.462 10.786 10.786 0 0 0-1.635-.136zm12.517-6.815c-.524 0-1.24.182-1.68 1.05-.536 1.058-.51 2.344.078 3.822.574 1.447 1.568 2.78 2.316 3.658 1.766-1.854 2.997-4.663 2.031-6.763-.463-1.007-1.643-1.767-2.745-1.767z" fill="#4A5254"/>
    </g>
    <defs>
        <clipPath id="a">
            <path fill="#fff" transform="translate(2.667 2.667)" d="M0 0h26.667v26.667H0z"/>
        </clipPath>
    </defs>
</svg>
