<svg width="32" height="32" fill="none" xmlns="http://www.w3.org/2000/svg">
    <path d="M25.021 6.98a12.666 12.666 0 0 0-9.02-3.74 12.666 12.666 0 0 0-9.022 3.74A12.696 12.696 0 0 0 3.24 16c0 3.406 1.329 6.615 3.74 9.021A12.696 12.696 0 0 0 16 28.761c3.406 0 6.615-1.328 9.021-3.74a12.696 12.696 0 0 0 3.74-9.02c0-3.407-1.328-6.615-3.74-9.022zm2.583 8.447h-4.948c-.046-1.968-.322-3.864-.807-5.547a12.655 12.655 0 0 0 2.63-1.812 11.588 11.588 0 0 1 3.125 7.36zm-11.03 1.146h4.942c-.042 1.813-.292 3.547-.724 5.099a12.883 12.883 0 0 0-4.219-.917v-4.182zm7.082-9.302a11.603 11.603 0 0 1-2.166 1.505 13.3 13.3 0 0 0-.672-1.562c-.495-.98-1.057-1.782-1.677-2.396a11.567 11.567 0 0 1 4.515 2.453zm-7.083-2.708c1.193.265 2.318 1.364 3.224 3.156.245.484.464 1 .656 1.547a11.689 11.689 0 0 1-3.88.87V4.563zm4.224 5.802c.427 1.541.672 3.265.714 5.067h-4.938v-4.145a12.887 12.887 0 0 0 4.224-.922zm-5.37 5.062h-4.942c.041-1.802.286-3.526.713-5.067a12.65 12.65 0 0 0 4.224.916v4.151h.005zm.005-10.864v5.573a11.66 11.66 0 0 1-3.88-.87c.193-.547.412-1.063.657-1.547.906-1.792 2.03-2.89 3.223-3.156zm-2.567.255c-.62.614-1.183 1.422-1.677 2.396-.245.49-.47 1.01-.672 1.562a11.777 11.777 0 0 1-2.167-1.505 11.568 11.568 0 0 1 4.516-2.453zm-5.339 3.25a12.858 12.858 0 0 0 2.63 1.812c-.484 1.688-.765 3.579-.807 5.547H4.401a11.589 11.589 0 0 1 3.125-7.36zm-3.125 8.505H9.35c.047 1.985.328 3.886.818 5.578a12.54 12.54 0 0 0-2.62 1.802 11.57 11.57 0 0 1-3.146-7.38zM8.37 24.75a11.641 11.641 0 0 1 2.156-1.495c.198.537.417 1.053.662 1.532.494.979 1.057 1.78 1.677 2.4A11.626 11.626 0 0 1 8.37 24.75zm7.063 2.688c-1.193-.266-2.318-1.365-3.224-3.157-.24-.473-.454-.979-.646-1.515a11.496 11.496 0 0 1 3.87-.865v5.537zm-4.22-5.766c-.432-1.552-.682-3.286-.723-5.099h4.942v4.182a12.623 12.623 0 0 0-4.218.917zm5.365 5.766V21.9c1.344.068 2.651.36 3.87.865a13.383 13.383 0 0 1-.646 1.515c-.906 1.792-2.031 2.891-3.224 3.157zm2.568-.255c.62-.615 1.182-1.422 1.677-2.402.245-.479.464-.994.662-1.53.765.41 1.49.91 2.156 1.494a11.491 11.491 0 0 1-4.495 2.438zm5.323-3.23a12.74 12.74 0 0 0-2.62-1.802c.49-1.692.771-3.599.818-5.578h4.948a11.625 11.625 0 0 1-3.146 7.38z" fill="#4A5254"/>
</svg>
