<svg width="32" height="32" fill="none" xmlns="http://www.w3.org/2000/svg">
    <path d="M25.583 26.833V3.5H6.417v23.333H3.5V28.5h25v-1.667h-2.917zm-1.666 0h-7.084V23.5h-1.666v3.333H8.083V5.167h15.834v21.666z" fill="#4A5254"/>
    <path d="M11 18.5h1.667v1.667H11V18.5zM15.167 18.5h1.666v1.667h-1.666V18.5zM19.334 18.5H21v1.667h-1.666V18.5zM11 13.5h1.667v1.667H11V13.5zM15.167 13.5h1.666v1.667h-1.666V13.5zM19.334 13.5H21v1.667h-1.666V13.5zM11 8.5h1.667v1.667H11V8.5zM15.167 8.5h1.666v1.667h-1.666V8.5zM19.334 8.5H21v1.667h-1.666V8.5z" fill="#4A5254"/>
</svg>
