<svg width="32" height="32" fill="none" xmlns="http://www.w3.org/2000/svg">
    <path d="m16.828 27.002 7.93-8.004h-1.674c-.205 0-.405-.025-.6-.073l-6.44 6.503-6.438-6.503a2.503 2.503 0 0 1-.604.073H7.334l7.924 8.004a1.101 1.101 0 0 0 1.57 0zM27.207 6.188a7.36 7.36 0 0 1 1.63 7.833 2.525 2.525 0 0 0-.337-.022H27.02a5.69 5.69 0 0 0-.997-6.64 5.51 5.51 0 0 0-7.854-.026l-1.585 1.605a.833.833 0 0 1-1.185 0l-1.6-1.616a5.504 5.504 0 0 0-7.842-.027c-1.788 1.806-2.098 4.556-.92 6.704H3.503c-.1 0-.2.007-.3.017a7.33 7.33 0 0 1 1.568-7.893 7.168 7.168 0 0 1 10.21.027l1.009 1.017.993-1.005a7.175 7.175 0 0 1 10.224.026z" fill="#4A5254"/>
    <path fill-rule="evenodd" clip-rule="evenodd" d="m12 12.154-1.924 4.81-.743.503h-6v-1.6h5.459l2.465-6.164h1.486l3.4 8.502 3.17-5.283 1.312-.088 2.426 3.033h5.616v1.6h-6l-.625-.3-1.948-2.436-3.408 5.68-1.429-.114L12 12.154z" fill="#4A5254"/>
</svg>
