<svg width="32" height="32" fill="none" xmlns="http://www.w3.org/2000/svg">
    <path d="M24.405 16a25.009 25.009 0 0 0 2.54-4.294c1.371-3.049 1.407-5.446.101-6.752s-3.704-1.27-6.752.102A25.01 25.01 0 0 0 16 7.595a25.01 25.01 0 0 0-4.294-2.54c-3.048-1.37-5.446-1.407-6.752-.101s-1.27 3.704.102 6.752A25.01 25.01 0 0 0 7.595 16a25.013 25.013 0 0 0-2.54 4.294c-1.371 3.048-1.407 5.446-.101 6.752.636.636 1.531.954 2.634.954 1.162 0 2.554-.352 4.118-1.056A25.008 25.008 0 0 0 16 24.405a25.008 25.008 0 0 0 4.294 2.54C21.858 27.647 23.25 28 24.412 28c1.103 0 1.998-.318 2.634-.954 1.306-1.306 1.27-3.704-.102-6.752A25.009 25.009 0 0 0 24.405 16zm1.555-9.96c.798.799.642 2.68-.417 5.035a22.828 22.828 0 0 1-2.11 3.644 38.816 38.816 0 0 0-2.906-3.246 38.83 38.83 0 0 0-3.246-2.906c4.05-2.827 7.495-3.71 8.679-2.527zM22.486 16a37.02 37.02 0 0 1-3.045 3.44 36.92 36.92 0 0 1-3.442 3.048 36.979 36.979 0 0 1-3.44-3.047A37.019 37.019 0 0 1 9.514 16a37.848 37.848 0 0 1 6.487-6.488 36.996 36.996 0 0 1 3.44 3.047A37.02 37.02 0 0 1 22.486 16zM6.457 11.075C5.397 8.72 5.242 6.839 6.04 6.04c.342-.342.873-.511 1.553-.511 1.673 0 4.247 1.027 7.127 3.037a39.49 39.49 0 0 0-6.153 6.152 22.832 22.832 0 0 1-2.11-3.643zM6.04 25.959c-.798-.798-.642-2.68.417-5.034a22.833 22.833 0 0 1 2.11-3.644 38.816 38.816 0 0 0 2.906 3.246 38.804 38.804 0 0 0 3.246 2.906c-4.05 2.826-7.495 3.71-8.679 2.526zm19.92 0c-.343.343-.873.512-1.553.512-1.673 0-4.247-1.027-7.127-3.038a38.79 38.79 0 0 0 3.247-2.906 38.816 38.816 0 0 0 2.906-3.246 22.82 22.82 0 0 1 2.11 3.644c1.06 2.354 1.215 4.236.417 5.034zM17.28 16a1.28 1.28 0 1 1-2.56 0 1.28 1.28 0 0 1 2.56 0z" fill="#4A5254"/>
</svg>
