<svg width="28" height="28" fill="none" xmlns="http://www.w3.org/2000/svg">
    <circle cx="14" cy="14" r="13.5" stroke="#4A5254"/>
    <path d="M19.537 10.864a1.25 1.25 0 0 0-.755-.851c-1.785-.686-4.627-.68-4.783-.68-.155 0-2.997-.006-4.782.68a1.248 1.248 0 0 0-.756.851c-.134.517-.295 1.463-.295 3.031 0 1.569.16 2.515.295 3.032a1.248 1.248 0 0 0 .756.851c1.708.657 4.386.68 4.748.68h.069c.362 0 3.04-.023 4.748-.68a1.248 1.248 0 0 0 .755-.851c.135-.517.296-1.463.296-3.031 0-1.569-.16-2.515-.296-3.032zm-3.755 3.205-2.5 1.666a.208.208 0 0 1-.324-.173V12.23a.208.208 0 0 1 .324-.173l2.5 1.666a.209.209 0 0 1 0 .347z" fill="#4A5254"/>
</svg>
