<svg width="24" height="24" viewBox="0 0 24 24" fill="none" xmlns="http://www.w3.org/2000/svg">
    <path d="M10.667 9.667A.667.667 0 0 1 11.333 9H16a.667.667 0 1 1 0 1.333h-4.667a.667.667 0 0 1-.666-.666zm0 4a.667.667 0 0 1 .666-.667H16a.666.666 0 1 1 0 1.333h-4.667a.667.667 0 0 1-.666-.666zm0 4a.667.667 0 0 1 .666-.667H16a.666.666 0 1 1 0 1.333h-4.667a.667.667 0 0 1-.666-.666zm-1.334-8a1 1 0 1 1-2 0 1 1 0 0 1 2 0zm0 4a1 1 0 1 1-2 0 1 1 0 0 1 2 0zm-1 5a1 1 0 1 0 0-2 1 1 0 0 0 0 2zm-.22-16.334A2 2 0 0 1 10 1h4a2 2 0 0 1 1.887 1.333H18a2 2 0 0 1 2 2v16a2 2 0 0 1-2 2H6a2 2 0 0 1-2-2v-16a2 2 0 0 1 2-2h2.113zm1.887 0a.667.667 0 1 0 0 1.334h4a.667.667 0 1 0 0-1.334h-4zM8.113 3.667H6a.667.667 0 0 0-.667.666v16A.667.667 0 0 0 6 21h12a.666.666 0 0 0 .667-.667v-16A.667.667 0 0 0 18 3.667h-2.113A2 2 0 0 1 14 5h-4a2 2 0 0 1-1.887-1.333z"/>
</svg>
