<svg width="24" height="24" viewBox="0 0 24 24" fill="none" xmlns="http://www.w3.org/2000/svg">
    <g clip-path="url(#a)">
        <path d="M13.502 7.5a.75.75 0 0 1 .75-.75h9a.75.75 0 0 1 0 1.5h-9a.75.75 0 0 1-.75-.75zm9.75 3.75h-9a.75.75 0 1 0 0 1.5h9a.75.75 0 0 0 0-1.5zm0 4.5h-6.75a.75.75 0 1 0 0 1.5h6.75a.75.75 0 0 0 0-1.5zm-9.213 2.063a.75.75 0 1 1-1.452.373 5.252 5.252 0 0 0-10.17 0 .75.75 0 0 1-1.452-.373 6.74 6.74 0 0 1 3.808-4.489 4.5 4.5 0 1 1 5.458 0 6.74 6.74 0 0 1 3.808 4.489zm-6.537-5.064a3 3 0 1 0 0-5.999 3 3 0 0 0 0 6z"/>
    </g>
    <defs>
        <clipPath id="a">
            <path fill="#fff" d="M0 0h24v24H0z"/>
        </clipPath>
    </defs>
</svg>
