<svg width="24" height="24" viewBox="0 0 24 24" fill="none" xmlns="http://www.w3.org/2000/svg">
    <path d="M21.75 12a9.75 9.75 0 1 0-16.33 7.189c.038.041.08.079.125.111a9.73 9.73 0 0 0 12.91 0 .742.742 0 0 0 .124-.11A9.726 9.726 0 0 0 21.75 12zm-18 0a8.25 8.25 0 1 1 14.415 5.476 7.459 7.459 0 0 0-3.38-2.695 4.5 4.5 0 1 0-5.57 0 7.458 7.458 0 0 0-3.38 2.695A8.216 8.216 0 0 1 3.75 12zM9 11.25a3 3 0 1 1 6 0 3 3 0 0 1-6 0zm-2.055 7.265a6.002 6.002 0 0 1 10.11 0 8.233 8.233 0 0 1-10.11 0z"/>
</svg>
