<?xml version="1.0" encoding="UTF-8"?><svg id="_圖層_1" xmlns="http://www.w3.org/2000/svg" viewBox="0 0 600 200"><defs><style>.cls-1{fill:#fff;}</style></defs><g id="logo_main"><path id="Path_313" class="cls-1" d="M87.1,52.58c.78-17.34,9.62-33.3,27.69-43.56,22.7-12.9,53.62-9.86,72.63,6.82,22.06,19.13,24.43,52.53,5.3,74.59-4.24,4.89-9.34,8.95-15.05,12-22.23,12.01-51.75,9.76-70.8-5.38-12.88-10.24-19.84-24.74-19.77-44.46Zm59.59,46.39c7.22-.05,14.32-1.91,20.64-5.41,17.92-9.47,27.02-28.77,22.45-47.44-5.94-24.23-29.81-38.35-54.27-32.38-19.26,4.7-34.72,22.18-33.69,44.18,1.08,23.13,20.75,41.08,44.87,41.06h0Z"/><path id="Path_314" class="cls-1" d="M233.98,66.75v35.82h-12.69V15.6h4.99c16.53,0,33.06-.12,49.58,.08,4.25,.03,8.47,.63,12.56,1.77,9.82,2.75,16.87,11.36,17.62,21.53,.94,10.79-3.96,19.66-13.7,24.66-2.23,1.15-4.56,2.11-7.42,3.43l26.17,35.55h-16.04c-8.54-11.82-17.19-23.77-25.94-35.87h-35.13Zm.26-11.22c1.34,.14,2,.28,2.66,.28,12.94,.01,25.88,.05,38.82-.02,2.04-.05,4.07-.33,6.05-.83,6.92-1.62,10.99-6.78,11.17-13.95,.16-6.24-3.89-11.6-10.44-13.41-2.46-.67-4.99-1.02-7.54-1.04-12.26-.11-24.52-.06-36.78-.03-1.3,0-2.6,.23-3.94,.35v28.66Z"/><path id="Path_315" class="cls-1" d="M454.44,15.77h16.93c14.6,28.7,29.21,57.44,44.34,87.18h-15.15c-3.83-7.36-7.65-14.7-11.55-22.2h-52.58c-3.61,7.15-7.34,14.53-11.11,22.01h-14.41c.56-3.74,38.05-78.72,43.53-86.99Zm28.82,53.1c-6.98-13.66-13.55-26.51-20.54-40.2l-20.26,40.2h40.8Z"/><path id="Path_316" class="cls-1" d="M326.58,102.57V15.92h77.26v9.8h-63.63v27.32h47.78v9.99h-47.68v29.74h63.43v9.81h-77.16Z"/><path id="Path_317" class="cls-1" d="M77.96,92.8v9.76H0V16.07H12V92.8H77.96Z"/><path id="Path_318" class="cls-1" d="M522.04,15.97h12.04V92.68h65.93v9.86h-77.96V15.97Z"/><path id="Path_319" class="cls-1" d="M330.2,184.29l7.06-29.36,10.19,1.61-12.66,42.42h-10.38c-2.4-9.25-4.81-18.51-7.35-28.33-3.07,9.86-5.92,19.02-8.82,28.34h-10.38c-3.72-13.94-7.43-27.83-11.33-42.44l10.5-1.66c2.39,10.01,4.66,19.52,7.08,29.67,2.93-9.78,5.67-18.92,8.48-28.3h9.36l8.25,28.04Z"/><path id="Path_320" class="cls-1" d="M426.86,156.1h9.84l18.14,26.3v-26.15h9.18v41.95h-8.58c-6.17-8.8-12.46-17.78-19.45-27.77v27.83h-9.13v-42.16Z"/><path id="Path_321" class="cls-1" d="M359.86,198.25l16.82-42.1h11.83l16.54,41.66c-4.13,1.46-7.94,.74-12,.56-1.34-3.5-2.66-6.95-4.06-10.63h-13.56c-1.26,3.43-2.53,6.88-3.87,10.51h-11.7Zm26.74-17.1c-1.58-5.53-3.05-10.71-4.66-16.33-1.67,5.56-3.24,10.78-4.91,16.33h9.57Z"/><path id="Path_322" class="cls-1" d="M184.51,187.69c-1.3,3.54-2.57,7-3.92,10.67h-11.43c5.14-14.4,11.09-27.98,16.57-42.09h11.94l16.63,41.97h-12.23c-1.33-3.48-2.64-6.93-4.02-10.55h-13.53Zm1.51-6.59h9.65l-4.66-16.22c-1.67,5.41-3.24,10.53-4.99,16.22Z"/><path id="Path_323" class="cls-1" d="M146.34,163.6h-11.12v34c-3.72,1.78-7.21,.88-11.22,.87v-34.58l-12.1-.65v-6.99h37.02l-2.58,7.35Z"/><path id="Path_324" class="cls-1" d="M255.04,191.81l5.7,1.03v5.47h-23.23v-5.48l5.66-.99v-29.4l-5.58-.56c-.12-1.78-.23-3.51-.37-5.63h23.5c.09,1.72,.17,3.33,.27,5.32l-5.94,1v29.24Z"/><path id="Path_325" class="cls-1" d="M67.89,15.8h13.49c-5.57,10.62-10.85,20.71-16.18,30.89h-9.62c4.21-10.56,8.26-20.73,12.31-30.89Z"/><path id="Path_326" class="cls-1" d="M387.67,2.89l-29.95,10.61-.64-.93,9.42-10.53h21.2l-.03,.85Z"/></g></svg>