<?xml version="1.0" encoding="UTF-8"?><svg id="_圖層_1" xmlns="http://www.w3.org/2000/svg" viewBox="0 0 100 100"><defs><style>.cls-1{fill:#ad0029;}</style></defs><path class="cls-1" d="M1,58.91c2.93,1.84,6.05,3.24,9.34,4.26,2.68,.83,5.42,1.35,8.2,1.67,2.63,.3,5.27,.34,7.91,.22,3.87-.18,7.68-.81,11.45-1.68,3.93-.91,7.73-2.23,11.58-3.4,4.67-1.41,9.35-2.77,14.13-3.74,2.18-.44,4.37-.82,6.58-1.09,1.93-.24,3.88-.39,5.83-.42,4.54-.06,8.92,.74,13.06,2.69,3.39,1.6,6.37,3.79,9.15,6.28,.3,.27,.6,.54,.77,.71-1.27-.87-2.64-1.88-4.07-2.78-3.2-2.02-6.66-3.36-10.4-3.96-2.38-.38-4.78-.46-7.19-.31-5.34,.32-10.52,1.49-15.62,2.98-5.97,1.74-11.91,3.61-17.85,5.45-3.36,1.04-6.77,1.89-10.25,2.4-1.53,.22-3.08,.37-4.63,.46-1.48,.09-2.96,.13-4.44,.08-4.7-.15-9.24-1.09-13.55-3.01-3.69-1.64-6.93-3.94-9.87-6.67-.04-.04-.08-.08-.12-.12Z"/><path class="cls-1" d="M65.27,38.19v1.88h-6.31v6.01h6.46v1.91h-8.62v-7.75h-7.97v7.75h-2.06V31.71h2.02v6.51h7.99v-6.5h8.55v1.92h-6.38v4.55h6.32Z"/><path class="cls-1" d="M92.14,31.28c.97,5.58,1.93,11.12,2.9,16.71h-2.1c-.54-3.49-1.08-6.98-1.63-10.47-.05-.01-.1-.02-.16-.04-1.53,3.62-3.07,7.25-4.6,10.86h-.69c-1.5-3.62-2.99-7.24-4.49-10.86-.05,0-.1,.01-.15,.02-.58,3.5-1.16,6.99-1.74,10.5h-2.04c1.02-5.6,2.03-11.17,3.04-16.7,.41-.11,.47,.16,.55,.37,.98,2.35,1.97,4.71,2.93,7.07,.69,1.68,1.35,3.37,2.02,5.06,.07,.17,.15,.34,.26,.62,.11-.24,.18-.38,.24-.52,1.7-4.05,3.4-8.11,5.11-12.16,.08-.19,.08-.53,.53-.45Z"/><path class="cls-1" d="M19.5,39.92c.03-2.52,.81-4.72,2.74-6.42,1.21-1.07,2.64-1.67,4.22-1.95,1.72-.3,3.42-.25,5.05,.46,2.83,1.24,4.5,3.41,4.97,6.45,.69,4.49-2.03,8.55-6.46,9.6-4.05,.96-7.89-.72-9.66-4.27-.61-1.21-.89-2.5-.86-3.87Zm8.38,6.41c3.08,.1,6.38-2.34,6.47-6.39,.08-3.73-2.68-6.53-6.21-6.56-3.86-.03-6.42,2.94-6.41,6.48,.02,3.61,2.51,6.52,6.15,6.47Z"/><path class="cls-1" d="M5.34,47.97V31.76c.06-.04,.08-.06,.11-.06,1.8,0,3.61-.16,5.4,.17,2.04,.37,3.33,2.18,3.1,4.24-.14,1.31-.72,2.33-1.8,3.08-.07,.05-.13,.11-.25,.2,.2,.11,.35,.21,.51,.29,1.5,.74,2.36,2.36,2.16,4.22-.1,.91-.33,1.76-.89,2.49-.73,.94-1.74,1.44-2.88,1.52-1.77,.12-3.54,.09-5.32,.12-.03,0-.05-.02-.14-.05Zm2.09-1.82c.14,.02,.24,.06,.33,.05,.86-.04,1.73-.06,2.59-.15,1.18-.12,2.02-.96,2.2-2.12,.19-1.24-.39-2.53-1.44-2.94-.61-.24-1.3-.35-1.96-.43-.56-.07-1.13-.01-1.72-.01v5.6Zm.02-12.56v5.16c.72-.04,1.39-.04,2.06-.11,1.19-.12,2.09-.92,2.31-2.08,.24-1.26-.18-2.33-1.43-2.76-.95-.32-1.93-.24-2.94-.21Z"/><path class="cls-1" d="M69.3,40.61v7.38h-2.07V31.71c.13-.01,.24-.03,.36-.03,1.35,0,2.7-.01,4.05,.02,.57,.01,1.15,.07,1.7,.2,1.49,.34,2.46,1.27,2.83,2.76,.31,1.26,.2,2.5-.41,3.67-.68,1.28-1.84,1.82-3.3,2.08,.69,1.3,1.44,2.52,2.16,3.77,.72,1.25,1.45,2.5,2.21,3.81h-2.37c-.08-.12-.17-.26-.26-.41-1.24-2.18-2.48-4.36-3.71-6.54-.31-.55-.38-.58-1.17-.42Zm.02-1.81c1.01-.08,1.97-.15,2.92-.23,1.03-.09,1.59-.72,1.86-1.67,.42-1.45-.28-2.92-1.65-3.19-1.01-.19-2.06-.14-3.13-.2v5.29Z"/><path class="cls-1" d="M39.44,33.62h-3.96v-1.9h10.11v1.85h-3.98v14.43h-2.17v-14.38Z"/><path class="cls-1" d="M16.03,31.7h2.08v16.3h-2.08V31.7Z"/></svg>