<?xml version="1.0" encoding="UTF-8"?><svg id="_圖層_1" xmlns="http://www.w3.org/2000/svg" viewBox="0 0 100 100"><defs><style>.cls-1{fill:#ad0029;}</style></defs><path class="cls-1" d="M58.55,61.89c-.18-.05-.37-.09-.55-.15-.4-.14-.71-.38-.87-.81,.21-.07,.42-.13,.62-.19,.44,.58,1.39,.79,2.03,.45,.13-.07,.28-.17,.23-.34-.04-.11-.16-.26-.27-.28-.38-.1-.77-.14-1.15-.22-.29-.06-.58-.12-.85-.24-.31-.13-.49-.39-.49-.74,0-.36,.17-.62,.5-.78,.5-.25,1.03-.25,1.56-.17,.29,.04,.58,.15,.85,.28,.23,.1,.37,.32,.46,.58-.21,.07-.41,.13-.62,.2-.15-.34-.43-.49-.77-.51-.29-.02-.59,0-.88,.01-.1,0-.21,.06-.3,.12-.22,.15-.2,.4,.05,.49,.22,.08,.46,.11,.69,.16,.31,.06,.62,.1,.93,.16,.15,.03,.3,.09,.44,.15,.72,.31,.64,1.22,.13,1.53-.21,.13-.47,.19-.71,.28-.05,.02-.1,.03-.15,.04h-.89Z"/><path class="cls-1" d="M62.4,38.11c.06,.04,.12,.08,.19,.12,1.67,.82,3.34,1.64,5.01,2.45,.06,.03,.12,.06,.18,.12-.69-.21-1.38-.42-2.06-.63-1.05-.32-2.11-.64-3.16-.96-.12-.04-.27-.04-.38,0-1.69,.51-3.37,1.02-5.06,1.54-.03,0-.06,.01-.11-.01,.06-.03,.11-.06,.17-.09,1.67-.82,3.34-1.64,5-2.46,.05-.03,.1-.06,.15-.08,.03,0,.05,0,.08,0Z"/><path class="cls-1" d="M86.96,55.34h-4.62c.07-.03,.1-.05,.13-.06,.59-.18,.9-.6,.93-1.19,.02-.47-.03-.95-.09-1.42-.19-1.47-.39-2.94-.59-4.41-.19-1.42-.39-2.84-.58-4.25-.02-.11-.06-.21-.09-.32-.02,0-.04,0-.06,0-.04,.07-.09,.15-.12,.22-.86,2.02-1.72,4.05-2.58,6.07-.48,1.15-.96,2.3-1.44,3.44-.03,.07-.05,.13-.09,.19-.06,.1-.13,.1-.2,.02-.05-.07-.09-.15-.13-.23-1.28-2.79-2.57-5.58-3.85-8.37-.13-.29-.28-.58-.42-.87-.03-.07-.08-.12-.16-.24-.04,.13-.08,.2-.08,.27-.09,.91-.17,1.83-.27,2.74-.13,1.3-.27,2.59-.41,3.89-.11,1.02-.22,2.04-.32,3.06-.02,.15-.02,.31,0,.46,.06,.42,.31,.71,.71,.86,.15,.06,.31,.09,.5,.15h-3.19c.06-.02,.09-.03,.12-.04,.45-.12,.8-.39,.95-.82,.13-.36,.22-.75,.27-1.13,.22-1.88,.41-3.76,.62-5.65,.14-1.32,.29-2.64,.43-3.96,.04-.39-.03-.77-.17-1.13-.17-.45-.49-.76-.94-.93-.1-.04-.2-.07-.3-.15,.06,0,.11,0,.17,0,1.04,0,2.08,0,3.12,0,.14,0,.21,.05,.27,.17,1.21,2.63,2.42,5.25,3.63,7.88,.1,.21,.2,.41,.32,.65,.06-.12,.11-.21,.15-.3,1.18-2.74,2.36-5.48,3.53-8.21,.06-.14,.12-.19,.28-.19,1.04,0,2.08,0,3.13,.03-.06,.02-.12,.05-.18,.07-.83,.25-1.18,.91-1.1,1.7,.12,1.23,.3,2.45,.45,3.67,.17,1.38,.34,2.75,.52,4.13,.12,.91,.24,1.82,.39,2.72,.04,.23,.15,.46,.26,.68,.19,.37,.49,.6,.89,.71,.07,.02,.14,.04,.21,.07v.03Z"/><path class="cls-1" d="M62.62,55.37c-2.18-.03-3.88-.58-5.28-1.9-1.45-1.38-2.16-3.1-2.16-5.1,0-3.43,2.31-6.29,5.72-6.96,3.9-.77,7.3,1.45,8.35,4.86,1.21,3.94-1.08,8.01-5.21,8.9-.56,.12-1.14,.16-1.43,.2Zm4.22-6.84c0-1.42-.13-2.66-.59-3.84-.61-1.58-1.66-2.66-3.42-2.86-1.11-.12-2.15,.11-3.03,.84-.82,.68-1.28,1.59-1.56,2.6-.45,1.62-.5,3.27-.26,4.92,.15,1.02,.47,2,1.05,2.86,1.23,1.83,3.25,2.15,4.86,1.45,.99-.43,1.66-1.21,2.14-2.16,.62-1.25,.82-2.6,.82-3.82Z"/><path class="cls-1" d="M38.67,50.85c0-.11,0-.17,0-.23,0-2.41,0-4.82-.02-7.22,0-.26-.04-.53-.1-.78-.14-.58-.53-.92-1.1-1.07-.06-.01-.12-.03-.17-.07h3.63s0,.01,0,.02c-.06,.02-.12,.05-.18,.07-.89,.27-1.33,.86-1.33,1.8,0,2.76,0,5.52,0,8.28,0,1.18,0,2.36,0,3.54,0,.09-.06,.18-.08,.27-.08-.05-.19-.09-.25-.16-.56-.69-1.11-1.38-1.66-2.08-2.49-3.13-4.98-6.26-7.46-9.4-.04-.05-.08-.09-.15-.18-.02,.1-.05,.16-.05,.23,0,.1,0,.19,0,.29,0,3.16,0,6.32,0,9.48,0,.28,.03,.57,.11,.83,.15,.5,.51,.77,1.03,.82,.08,0,.17,.02,.25,.03,.01,0,.02,.01,.04,.03h-3.55s0-.02,0-.03c.09-.03,.18-.06,.28-.08,.79-.2,1.12-.61,1.12-1.43,0-3.45,0-6.9,0-10.35,0-1.04-.37-1.54-1.37-1.87-.05-.02-.09-.03-.13-.08,.06,0,.12-.01,.18-.01,1.07,0,2.15,0,3.22,0,.15,0,.23,.05,.32,.16,2.43,3,4.87,5.99,7.3,8.98,.04,.05,.08,.1,.16,.19Z"/><path class="cls-1" d="M98.99,52.67c-.03,.89-.05,1.78-.08,2.68h-10.33s0-.01,0-.02c.07-.02,.14-.03,.21-.05,.65-.16,1.06-.64,1.16-1.4,.03-.22,.05-.45,.05-.67,0-3.16,0-6.32,0-9.48,0-.34-.04-.69-.12-1.03-.14-.58-.51-.93-1.11-1.04-.05-.01-.11-.03-.16-.07h10.31c.03,.88,.06,1.77,.09,2.66-.01,0-.02,0-.04,0-.01-.1-.03-.2-.04-.29-.16-1.01-.68-1.59-1.71-1.83-.37-.09-.75-.13-1.12-.14-1.14-.02-2.29,0-3.43,0-.45,0-.58,.12-.65,.56-.03,.21-.03,.42-.03,.63,0,1.21,0,2.43,.01,3.64,0,.35,.05,.4,.39,.43,.14,.01,.28,.01,.42,.01,1.04,0,2.08,0,3.12,0,.19,0,.37-.01,.56-.05,.6-.11,.93-.51,1.05-1.09,.02-.09,.04-.19,.08-.28v3.39s-.01,0-.02,0c-.03-.16-.06-.32-.1-.48-.17-.7-.6-1.04-1.32-1.04-1.16,0-2.31,0-3.47,0-.1,0-.19,0-.29,.02-.28,.04-.41,.18-.43,.46-.01,.17-.02,.33-.02,.5,0,1.84,0,3.69,0,5.53,0,.57,.06,.64,.62,.65,1.3,0,2.59,0,3.89-.02,.37,0,.75-.11,1.1-.24,.8-.29,1.2-.9,1.31-1.73,.01-.08,.03-.16,.05-.24,.02,0,.03,0,.05,0Z"/><path class="cls-1" d="M26.29,55.4h-4.52s0-.02-.01-.03c.07-.02,.14-.05,.21-.07,.61-.18,.87-.58,.75-1.21-.03-.16-.08-.33-.14-.48-.52-1.28-1.05-2.56-1.58-3.84-.03-.07-.06-.14-.09-.21-.07-.18-.21-.27-.4-.26-.33,0-.66,0-.98,0-.79,0-1.58,0-2.37,0-.51,0-.6,.06-.79,.53-.55,1.35-1.11,2.69-1.66,4.04-.07,.18-.13,.37-.15,.55-.04,.37,.11,.62,.46,.75,.17,.06,.35,.09,.52,.13,.08,.02,.16,.03,.24,.07h-3.16s0-.02,0-.03c.66-.16,1.04-.63,1.29-1.2,.58-1.33,1.13-2.67,1.69-4,1.18-2.8,2.35-5.59,3.53-8.39,.06-.13,.09-.31,.27-.31,.19,0,.28,.15,.35,.31,1.66,3.93,3.33,7.85,4.99,11.78,.13,.3,.26,.6,.42,.88,.26,.45,.56,.87,1.11,.99Zm-7.42-6.77h0c.47,0,.95,0,1.42,0,.25,0,.28-.05,.19-.29-.17-.48-.35-.96-.52-1.45-.27-.75-.54-1.49-.81-2.24-.05-.14-.09-.37-.27-.35-.1,.01-.21,.2-.27,.33-.12,.25-.22,.52-.32,.78-.37,.92-.75,1.84-1.11,2.76-.14,.35-.06,.45,.31,.45,.46,0,.92,0,1.39,0Z"/><path class="cls-1" d="M53.76,41.73v3.64c-.07-.13-.13-.23-.18-.33-.3-.59-.62-1.16-1.05-1.68-1.53-1.84-4.4-2.23-6.38-.3-1.11,1.09-1.77,2.42-2.02,3.94-.28,1.7-.12,3.37,.66,4.94,.77,1.55,2.03,2.52,3.74,2.82,.86,.15,1.71-.03,2.53-.31,.96-.33,1.76-.91,2.47-1.62,.11-.11,.21-.24,.31-.36,.02,.02,.05,.04,.07,.06-.05,.09-.09,.18-.15,.27-1.15,1.57-2.66,2.48-4.63,2.53-1.31,.03-2.59-.16-3.79-.71-1.76-.81-2.81-2.21-3.39-4.02-1.15-3.59,1.1-8.2,5.42-9.13,1.54-.33,3.02-.09,4.47,.47,.32,.12,.63,.26,.95,.36,.4,.12,.55,.05,.76-.31,.05-.09,.11-.18,.16-.27,.01,0,.03,0,.04,.01Z"/><path class="cls-1" d="M11.54,52.44c-.19,1-.37,1.96-.55,2.92H1.01s0-.01,0-.02c.17-.04,.34-.06,.49-.12,.28-.1,.57-.2,.82-.36,.37-.22,.55-.58,.54-1.02,0-3.43,0-6.86,0-10.29,0-.78-.38-1.32-1.13-1.62-.18-.07-.37-.13-.55-.22H6.73s0,.01,0,.02c-.1,.03-.2,.05-.29,.08-.27,.1-.55,.17-.81,.3-.48,.25-.74,.66-.78,1.2,0,.12-.01,.23-.01,.35,0,3.45,0,6.9,0,10.35,0,.65,.19,.86,.84,.87,.94,.01,1.88,.03,2.81,0,.42-.02,.84-.11,1.24-.24,.85-.29,1.37-.91,1.63-1.76,.04-.12,.08-.24,.12-.37,0-.01,.02-.02,.06-.06Z"/><path class="cls-1" d="M49.81,60.49v1.32h-.65v-3.34c.06,0,.1-.02,.14-.02,.71,0,1.41,0,2.12,0,.1,0,.19,.01,.29,.03,.61,.1,.87,.39,.87,.98,0,.52-.31,.87-.87,.97-.01,0-.02,.01-.05,.03,.33,.44,.66,.87,1.02,1.34-.28,0-.52,0-.76,0-.05,0-.1-.06-.14-.11-.27-.36-.53-.72-.81-1.08-.05-.07-.16-.12-.25-.13-.29-.02-.59,0-.9,0Zm0-1.48v.92c.54,0,1.07,0,1.6,0,.06,0,.13-.02,.19-.04,.2-.06,.3-.18,.31-.39,.01-.29-.12-.47-.45-.48-.54-.02-1.09,0-1.65,0Z"/><path class="cls-1" d="M39.88,60.51v1.29h-.65v-3.34c.17,0,.34,0,.5,0,.65,.01,1.31,0,1.96,.04,.73,.05,1.08,.6,.9,1.3-.08,.32-.3,.53-.61,.61-.22,.06-.45,.08-.68,.09-.4,.01-.8,0-1.19,0-.07,0-.14,0-.23,0Zm.01-.59c.56,0,1.1,0,1.64,0,.04,0,.08-.01,.11-.03,.22-.06,.32-.21,.31-.44,0-.23-.12-.4-.35-.41-.57-.02-1.14,0-1.72,0v.88Z"/><path class="cls-1" d="M43.43,61.8c.09-.18,.17-.34,.25-.5,.45-.9,.9-1.8,1.34-2.7,.05-.11,.12-.13,.23-.15,.46-.08,.69,.1,.88,.54,.38,.89,.84,1.74,1.26,2.61,.03,.06,.06,.12,.1,.21-.22,0-.42,0-.61,0-.05,0-.1-.06-.13-.11-.09-.17-.17-.34-.25-.52-.04-.09-.09-.13-.2-.13-.56,0-1.12,0-1.67,0-.1,0-.17,.02-.2,.13-.01,.04-.03,.07-.05,.1q-.27,.58-.95,.53Zm2.05-2.84c-.25,.53-.47,1.01-.7,1.52h1.41c-.23-.51-.46-.99-.7-1.52Z"/><path class="cls-1" d="M55.29,61.8h-.63v-3.33h.63v3.33Z"/></svg>