<?xml version="1.0" encoding="UTF-8"?><svg id="_圖層_1" xmlns="http://www.w3.org/2000/svg" viewBox="0 0 100 100"><defs><style>.cls-1{fill:#ad0029;}</style></defs><path class="cls-1" d="M42.66,23.29v-.77c.22-.01,.44-.04,.66-.04,3.11,0,6.23,0,9.34,0,1.89,0,3.78-.02,5.67,.01,.85,.01,1.71,.11,2.56,.2,.89,.1,1.78,.2,2.65,.36,2.22,.39,4.33,1.11,6.22,2.35,2.49,1.63,4.02,3.92,4.41,6.89,.2,1.5,.18,3-.09,4.49-.2,1.12-.53,2.19-1.06,3.19-1.09,2.09-2.76,3.58-4.93,4.49-1.41,.6-2.9,.94-4.44,.96-.32,0-.64,.08-1.05,.13,2.13,.63,3.61,2.01,4.96,3.59,1.87,2.19,3.28,4.68,4.79,7.1,1.08,1.73,2.15,3.47,3.24,5.19,.6,.95,1.22,1.89,1.98,2.73,.93,1.02,2.02,1.78,3.29,2.32,1.14,.49,2.32,.73,3.56,.68,.17,0,.34,.01,.56,.03v.86c-.15,.02-.27,.04-.4,.04-.29,0-.57,0-.86,0-2.01,.04-3.98-.25-5.93-.75-1.84-.47-3.51-1.28-5.02-2.43-.97-.74-1.82-1.62-2.62-2.55-1.4-1.6-2.6-3.34-3.73-5.13-.68-1.06-1.29-2.16-1.92-3.25-.97-1.71-1.94-3.42-3.14-4.98-.61-.8-1.3-1.54-2.1-2.17-.89-.7-1.9-1.12-3-1.32-.45-.08-.91-.12-1.36-.13-1.09-.02-2.18,0-3.27,0-.15,0-.3,.02-.48,.04-.01,.19-.04,.36-.04,.52,0,6.27,0,12.53,0,18.8,0,.4,.06,.8,.14,1.19,.11,.58,.45,.83,1.1,.88,.4,.03,.79,.07,1.23,.11v.63c-.44,.11-10.25,.13-10.93,.02v-.61c.53-.05,1.03-.1,1.54-.14,.17-.02,.35,0,.51-.04,.46-.09,.76-.36,.84-.83,.07-.41,.14-.83,.14-1.25,0-6.13,0-12.26,0-18.4,0-.17-.02-.33-.03-.53H22.96c0,.22-.02,.44-.02,.65,0,5.08,0,10.16,0,15.24,0,1.01,0,2.02,0,3.04,0,.36,.08,.72,.1,1.08,.03,.6,.49,.99,1.16,1.02,.39,.02,.79,.07,1.21,.11v.59s-.04,.04-.05,.05c-.01,.01-.03,.03-.05,.03-3.21,.01-6.42,.02-9.62,.04-.19,0-.38,0-.64,0-.02-.23-.03-.42-.05-.68,.36-.05,.67-.09,.99-.13,.21-.03,.42-.02,.62-.07,.41-.08,.69-.35,.77-.75,.08-.41,.13-.83,.13-1.24,0-10.24,0-20.48,0-30.72,0-2.96,0-5.92,0-8.88,0-.3-.04-.61-.1-.9-.16-.7-.47-.95-1.2-.98-.36-.02-.72-.03-1.08-.04-.02,0-.03-.02-.09-.07v-.61c.41-.12,9.58-.16,10.37-.04,.01,.2,.02,.42,.04,.71-.24,.01-.44,.02-.64,.04-.34,.03-.69,.03-1.02,.09-.4,.07-.63,.35-.72,.73-.08,.33-.13,.68-.13,1.02,0,6.27,0,12.53,0,18.8,0,.15,0,.3,0,.41,.05,.05,.06,.07,.08,.08,.01,.01,.03,.03,.04,.03,7.37,.01,14.75,.02,22.12,.03,.15,0,.3-.01,.49-.02,.02-.16,.05-.3,.05-.45,0-6.02,0-12.03,0-18.05,0-.51-.06-1.03-.11-1.54-.08-.71-.43-1.05-1.15-1.11-.36-.03-.73-.01-1.09-.02-.21,0-.42,0-.7,0Zm8.47,21.26c.15,.02,.23,.05,.3,.05,2.21-.05,4.42,.09,6.64-.08,.83-.07,1.67-.1,2.5-.25,1.51-.27,2.97-.68,4.3-1.48,1.34-.81,2.38-1.89,3.08-3.29,.72-1.44,1.04-2.98,1.14-4.57,.08-1.27,.05-2.55-.21-3.81-.34-1.62-1.02-3.07-2.21-4.25-1.16-1.15-2.55-1.92-4.09-2.43-2.11-.71-4.3-1-6.5-1.12-1.07-.06-2.14-.02-3.21-.01-.24,0-.49,.07-.73,.09-.55,.05-.79,.42-.88,.91-.07,.41-.12,.83-.12,1.25,0,6.11,0,12.22,0,18.33,0,.21,0,.42,0,.67Z"/><path class="cls-1" d="M44.56,72.71c.68-.06,1.4-.15,2.11,0,.39,.09,.75,.26,.96,.65,.35,.65,.14,1.3-.52,1.63-.12,.06-.24,.1-.31,.13,.29,.41,.61,.81,.87,1.24,.24,.4,.48,.78,1,.85,.04,0,.06,.08,.1,.13-.63,.19-1.15-.02-1.54-.52-.38-.48-.68-1-1.06-1.56-.21-.05-.45-.1-.7-.16-.16,.79-.11,1.72,.11,2.22-.35,.14-.69,.08-1.1,.04,.28-.45,.21-.9,.21-1.35,0-.78,.01-1.56,0-2.34,0-.29-.07-.58-.12-.96Zm.82,2.07c.93,.26,1.59,0,1.7-.63,.05-.3,.04-.61-.16-.88-.32-.43-.82-.31-1.3-.44-.43,.61-.13,1.29-.24,1.94Z"/><path class="cls-1" d="M18.2,75.23h-2.26c.04,.67-.15,1.38,.18,2.1-.35,.13-.7,.08-1.11,.03,.29-.44,.21-.9,.22-1.35,0-.76,.01-1.53,0-2.29,0-.31-.08-.62-.12-.95,.32-.13,.43-.13,1.02-.02-.34,.68-.13,1.4-.2,2.11h2.23v-1.75c-.05-.07-.15-.2-.3-.39h1.07c-.04,.42-.1,.8-.11,1.19-.02,.8-.02,1.6,0,2.41,0,.33,.07,.66,.12,1.04h-1.05c.53-.65,.24-1.36,.32-2.13Z"/><path class="cls-1" d="M55.86,74.83c.27,.23,.52,.38,.69,.59,.48,.59,.31,1.36-.37,1.74-.2,.11-.42,.22-.64,.23-.64,.03-1.29,.01-1.9,.01,.04-.35,.11-.66,.12-.96,.01-.94,.01-1.87,0-2.81,0-.29-.06-.59-.1-.95,.6,.01,1.25-.02,1.88,.05,.42,.05,.81,.27,.94,.73,.13,.46,.02,.87-.35,1.19-.08,.07-.19,.13-.27,.18Zm-1.4,.3c.02,.71-.06,1.33,.05,1.93,.36,.17,.68,.13,.99,.06,.39-.09,.54-.37,.54-.94,0-.63-.13-.9-.51-1.03-.04-.01-.07-.02-.11-.03-.3,0-.6,0-.96,0Zm.14-2.26c-.25,.65-.11,1.3-.12,1.93,.77,.1,1.25-.17,1.33-.71,.12-.79-.13-1.07-1.21-1.22Z"/><path class="cls-1" d="M64.1,72.72c-.05,.37-.12,.68-.13,.99-.02,1.03,0,2.06,0,3.09,0,.18-.01,.37-.02,.66-.56-.37-.82-.87-1.21-1.24-.41-.39-.78-.84-1.16-1.26-.37-.41-.72-.83-1.1-1.26-.14,.65-.1,3.18,.05,3.67h-.6c.04-.42,.1-.81,.11-1.2,.02-.82,.02-1.64,0-2.46,0-.31-.08-.62-.13-1.01,.15,0,.34-.02,.58-.03,1.04,1.17,2.08,2.35,3.15,3.56v-3.17c-.04-.05-.12-.17-.24-.35h.69Z"/><path class="cls-1" d="M36.61,77.41c-1.12-1.25-2.24-2.51-3.41-3.82-.03,.17-.05,.26-.05,.35,0,.88-.02,1.76,0,2.63,0,.25,.12,.5,.2,.8-.19,.08-.41,.08-.58,0,.04-.39,.1-.74,.11-1.09,.02-.84,.02-1.68,0-2.52,0-.33-.07-.66-.12-1.05,.13-.01,.31-.03,.55-.05,1.04,1.16,2.08,2.34,3.2,3.59,.02-.24,.03-.38,.03-.52,0-.71,.02-1.41,0-2.12,0-.29-.1-.57-.17-.91,.16-.07,.38-.07,.55,0-.04,.4-.1,.75-.11,1.09-.01,.99,0,1.98,0,2.98,0,.18-.01,.37-.02,.55-.06,.02-.11,.04-.17,.06Z"/><path class="cls-1" d="M80.32,72.71c.16,0,.34-.02,.58-.03,1.04,1.17,2.08,2.35,3.12,3.52,.03-.02,.06-.03,.1-.05,0-.97,.01-1.93-.01-2.9,0-.17-.15-.33-.24-.54h.73c-.3,.49-.22,.98-.22,1.46,0,.88,0,1.75,0,2.63,0,.18-.01,.36-.03,.69-.76-.67-1.26-1.39-1.85-2.02-.58-.62-1.14-1.26-1.78-1.96v1.43c0,.38,0,.76,0,1.14,0,.43-.05,.88,.31,1.28h-.69c.04-.42,.11-.8,.11-1.19,.02-.84,.02-1.68,0-2.52,0-.29-.07-.58-.13-.97Z"/><path class="cls-1" d="M48.81,72.71h.92c-.04,.35-.1,.67-.1,1-.01,.8,.01,1.6,0,2.41-.02,.79,.53,1.14,1.28,1.08,.9-.08,1.22-.47,1.23-1.39,0-.63,.01-1.26,0-1.89-.01-.39-.07-.77-.11-1.2h.56c-.03,.33-.08,.64-.09,.95-.01,.61,.01,1.22-.01,1.83-.01,.34-.06,.69-.14,1.01-.18,.71-.77,.89-1.39,.99-.17,.03-.34,.01-.51,0-.93-.06-1.48-.61-1.5-1.55-.02-.76,0-1.53,0-2.29,0-.31-.07-.62-.11-.96Z"/><path class="cls-1" d="M76.99,76.95v.44c-1.12,.05-2.21,0-3.43,.03,.42-.38,.35-.79,.35-1.17,0-.86,.01-1.72,0-2.57,0-.29-.07-.58-.12-.89,.31-.13,2.19-.16,2.95-.03,0,.11,.02,.22,.03,.36-.61-.2-1.16-.23-2.05-.14-.13,.38-.16,1.15-.06,1.89h1.53c.1,.11,.01,.31,0,.56-.52-.28-1.01-.2-1.55-.15v1.81c.68,.16,1.8,.11,2.34-.13Z"/><path class="cls-1" d="M28.53,72.73s.06-.04,.11-.04c.91,0,1.83,0,2.78,0,.06,.13,.12,.25,.19,.39-.39-.05-.73-.11-1.08-.13-.36-.02-.72,0-1.07,0-.15,.41-.17,1.12-.08,1.93h1.52c.08,.11,.05,.31,0,.55-.48-.29-.97-.16-1.51-.18-.09,.63-.03,1.23-.04,1.9,.83,.03,1.62,.15,2.48-.17-.05,.16-.09,.29-.13,.42h-3.17c.04-.44,.11-.84,.11-1.24,.02-.82,.02-1.64,0-2.46,0-.31-.07-.62-.11-.94Z"/><path class="cls-1" d="M23.31,76.94c-.03,.15-.06,.27-.09,.44-1.08,.05-2.16,.02-3.18,.02,.04-.46,.1-.85,.11-1.23,.02-.82,.02-1.64,0-2.46,0-.31-.08-.62-.12-.94,.33-.12,1.84-.15,2.93-.05,.04,.11,.09,.24,.15,.41-.55-.22-1.42-.26-2.2-.12v1.85h1.54c0,.14-.01,.31-.02,.51-.53-.21-1.01-.16-1.52-.11v1.88c.81-.02,1.6,.16,2.41-.21Z"/><path class="cls-1" d="M38.49,75.65q-.51,1.25-.41,1.72h-.72c.71-.92,.89-2,1.31-2.98,.18-.43,.32-.89,.5-1.42,.06-.08,.19-.23,.37-.45,.21,.55,.39,1,.56,1.46,.33,.85,.66,1.7,1.02,2.54,.12,.28,.32,.54,.5,.84-.37,.1-.76,.03-1.17,.04,.16-.68-.25-1.18-.43-1.75h-1.53Zm.75-2.01c-.22,.58-.49,1.06-.57,1.64h1.21c-.22-.57-.42-1.07-.64-1.64Z"/><path class="cls-1" d="M67.7,73.12v.61c-.27-.29-.47-.55-.72-.76-.29-.23-.65-.16-1.02-.12-.12,.11-.24,.22-.4,.37,0,.17,0,.36,0,.55,.01,.28,.11,.52,.37,.67,.25,.14,.5,.27,.75,.42,.23,.13,.48,.24,.68,.4,.74,.6,.65,1.57-.19,2.03-.56,.31-1.16,.37-1.74,.01-.18-.11-.36-.21-.54-.32v-.65c.11,.12,.17,.16,.2,.22,.3,.61,.87,.88,1.51,.71,.64-.17,.87-.91,.41-1.4-.16-.18-.4-.29-.6-.42-.34-.21-.7-.39-1.02-.63-.52-.38-.59-1.18-.2-1.68,.41-.51,1.16-.7,1.75-.41,.25,.12,.5,.27,.75,.41Z"/><path class="cls-1" d="M72.95,73.17c-.72-.37-1.32-.2-1.94-.23-.02,.2-.05,.34-.05,.49,0,.95,0,1.91,0,2.86,0,.37-.06,.76,.35,1.1h-1.15c.03-.33,.09-.64,.09-.95,.01-.95,0-1.91,0-2.86v-.62c-.63-.03-1.21-.12-1.85,.14,.04-.19,.07-.33,.1-.46h4.29c.03,.11,.08,.25,.16,.52Z"/><path class="cls-1" d="M24.02,77.34c.17-.18,.25-.27,.35-.37v-3.82c-.08-.1-.18-.23-.33-.42h1.3c-.14,.17-.23,.28-.31,.39-.08,.22-.03,3.61,.05,3.94,.58,.18,2.07,.14,2.58-.08,.14,.19,.04,.32-.13,.4-.1,.04-.22,.04-.34,.04-.92,0-1.83,0-2.75,0-.11,0-.22-.03-.42-.06Z"/><path class="cls-1" d="M57.53,72.72h.93c-.04,.39-.1,.74-.11,1.08-.02,.76,0,1.53,0,2.29,0,.43-.04,.87,.32,1.28h-1.22c.35-.37,.3-.79,.3-1.19,0-.84,0-1.68,0-2.52,0-.32,.07-.66-.33-.88,.04-.02,.08-.05,.12-.07Z"/><path class="cls-1" d="M77.94,72.71h1.18c-.41,.32-.36,.69-.36,1.05,0,.84,0,1.68,0,2.52,0,.38-.06,.76,.35,1.1h-1.25c.37-.41,.29-.86,.29-1.3,0-.8,0-1.6,0-2.4,0-.33,.02-.65-.22-.96Z"/></svg>