<?xml version="1.0" encoding="UTF-8"?><svg id="_圖層_1" xmlns="http://www.w3.org/2000/svg" viewBox="0 0 100 100"><defs><style>.cls-1{fill:#ad0029;}</style></defs><path class="cls-1" d="M66.77,15.47c-.09,.06-.22,.09-.28,.18-2.81,3.96-5.62,7.92-8.42,11.88-.26,.37-.46,.77-.74,1.24,1.66,.43,3.18,.85,4.71,1.22,.88,.21,1.21,.68,.98,1.59-.32,1.27-.59,2.55-.9,3.9-1.31-1.04-2.42-2.06-3.66-2.87-2.8-1.83-2.83-1.79-4.79,.86-3.79,5.12-3.89,5.42-4.6,12.09-.14,1.36,1.06,1.3,1.84,1.99,.24-1.36,.48-2.56,.65-3.77,.11-.81,.46-1.13,1.3-1.07,1.02,.07,2.06,.02,3.24,.02-.39,2.27-.72,4.33-1.11,6.38-.13,.69-.01,1.17,.54,1.63,.75,.62,1.45,1.3,2.12,2,3.58,3.77,4.06,9.01,1.26,13.39-1.62,2.53-3.9,4.32-6.54,5.63-.98,.49-1.44,1.12-1.58,2.17-.38,2.96-.82,5.92-1.26,9.03,2.8,.47,5.45,.21,8.07-.15,2.6-.36,5.18-.89,7.89-1.36-.35,1.17-.7,2.33-1.06,3.55h-20.36c1.45-3.85,2.29-7.79,2.53-11.71-2.44-.2-4.8-.22-7.1-.64-1.8-.33-3.51-1.17-5.28-1.74-.81-.27-1.1-.8-.94-1.59,.27-1.36,.58-2.71,.93-4.35,3.62,3.77,7.85,5.54,13.03,4.99,.7-4.19,1.4-8.33,2.08-12.47,.18-1.11,.34-2.23,.5-3.35,.21-1.51,.03-1.78-1.71-2.35-.1,1.84-.19,3.64-.29,5.5h-4.53c.42-2.35,.88-4.69,1.23-7.04,.06-.42-.21-1.04-.53-1.34-.91-.84-1.96-1.53-2.91-2.33-3.64-3.09-4.25-7.3-1.48-11.21,1-1.41,2.37-2.56,3.5-3.88,.26-.3,.45-.9,.34-1.25-1.39-4.33-2.81-8.65-4.33-12.93-.3-.86-1.08-1.55-1.64-2.31,1.78,0,3.57,0,5.35,0,1.42,4.82,2.84,9.64,4.23,14.33,2.1-.27,4.04-.59,6-.75,.74-.06,1.18-.25,1.58-.89,2.64-4.25,5.31-8.47,7.97-12.7,1.24,0,2.48-.02,3.72,.02,.16,0,.31,.29,.47,.45Zm-15.12,53.22c2.76-.72,4.7-3.1,5.06-6.18,.31-2.66-.39-4.96-2.82-6.78-.76,4.4-1.49,8.62-2.24,12.96Zm-6.06-25.19c.62-3.38,.63-6.58-1.18-9.6-3.44,2.36-1.86,8.65,1.18,9.6Zm3.52-7.04c1.25-2.02,2.29-3.71,3.33-5.39-.07-.13-.14-.26-.22-.39-1.48,.33-2.97,.66-4.53,1.01,.5,1.69,.92,3.08,1.42,4.77Z"/></svg>