<?xml version="1.0" encoding="UTF-8"?><svg id="_圖層_1" xmlns="http://www.w3.org/2000/svg" viewBox="0 0 100 100"><defs><style>.cls-1{fill:#ad0029;}</style></defs><path class="cls-1" d="M70,48.56c-.86-1.23-2.2-1.29-3.29-.91-1.15,.4-1.79,1.3-1.8,2.54-.02,1.48,0,2.95,.01,4.43,0,.27,0,.55,0,.87h-1.27c-.02-.19-.06-.41-.07-.62-.04-1.7-.08-3.4-.13-5.1,0-.33-.03-.68-.14-.98-.4-1.12-1.38-1.59-2.74-1.21-1.49,.41-2.18,1.08-2.2,2.63-.03,1.48,0,2.95,0,4.43,0,.27,0,.54,0,.85h-1.68v-9.14h1.64c.03,.32,.05,.61,.09,1.02,.95-.88,2.04-1.33,3.28-1.3,1.2,.03,2.33,.29,3.01,1.5,.16-.14,.26-.23,.36-.32,1.32-1.21,2.85-1.43,4.51-.96,1.06,.3,1.72,1,1.85,2.13,.26,2.33,.05,4.66,.12,7.04-.29,.03-.51,.06-.72,.06-.19,0-.38-.03-.65-.05-.06-2.38-.13-4.74-.19-6.93Z"/><path class="cls-1" d="M47.49,51.17c.38,1.61,1.14,2.72,2.69,3.02,1.81,.35,3.32-.12,4.24-1.91h1.57c-.42,1.34-1.13,2.37-2.51,2.86-1.56,.55-3.1,.55-4.65-.04-1.78-.67-2.75-2.12-2.83-4.03-.15-3.57,2.54-5.06,4.95-5.03,.55,0,1.11,.06,1.65,.17,2.06,.42,3.78,2.3,3.39,4.96h-8.5Zm.12-1.21h6.89c-.23-1.5-1.61-2.54-3.27-2.61-1.62-.07-3.1,.58-3.62,2.61Z"/><path class="cls-1" d="M98.95,55.14h-1.27c-.06-.23-.12-.46-.19-.71-.07,.01-.16,0-.21,.05-.84,.59-1.82,.83-2.8,1.02-1.08,.2-2.11-.05-3.07-.55-.85-.45-1.3-1.21-1.38-2.16-.07-.76,.27-1.35,.89-1.78,.92-.65,1.99-.82,3.07-.96,.74-.09,1.49-.2,2.22-.34,.49-.1,.97-.26,1.28-.7,0-.89-.22-1.26-1-1.52-1.08-.36-2.18-.43-3.28-.1-.85,.25-1.34,.86-1.53,1.76h-1.11c-.19-.91,.21-1.59,.87-2.17,.59-.51,1.31-.73,2.06-.86,1.13-.19,2.27-.26,3.38,.11,.65,.22,1.22,.57,1.59,1.16,.19,.29,.35,.65,.37,.99,.08,2.11,.12,4.23,.18,6.35,0,.11-.02,.22-.05,.42Zm-1.47-4.48c-.65,.16-1.24,.32-1.84,.44-.63,.12-1.26,.18-1.89,.28-.46,.08-.93,.16-1.38,.29-.5,.14-.82,.51-.85,1.02-.03,.51,.28,.89,.7,1.15,.16,.1,.35,.16,.54,.22,1.05,.29,2.1,.25,3.12-.1,1.36-.46,2.08-1.97,1.6-3.3Z"/><path class="cls-1" d="M1,52.38h1.25c1.22,1.8,3.69,2.5,5.68,1.62,.65-.29,1.11-.73,1.25-1.45-.17-.58-.66-.74-1.15-.83-1.12-.2-2.25-.34-3.38-.52-.57-.1-1.15-.21-1.71-.37-.86-.24-1.51-.76-1.7-1.66-.19-.93,.18-1.73,.92-2.28,.5-.37,1.1-.68,1.71-.82,1.51-.35,3-.11,4.4,.52,.98,.44,1.71,1.15,1.65,2.43h-1.08c-1.18-1.58-2.9-2.17-4.87-1.61-.31,.09-.63,.24-.89,.44-.59,.47-.55,1.11,.08,1.51,.25,.16,.55,.3,.84,.35,.82,.14,1.65,.27,2.48,.31,.9,.05,1.77,.16,2.59,.54,.87,.41,1.43,1.08,1.46,2.07,.03,.95-.46,1.67-1.3,2.08-2.12,1.04-4.27,1.17-6.41,.06-.93-.48-1.55-1.24-1.81-2.39Z"/><path class="cls-1" d="M20.2,55.51h-1.48c-.04-1-.08-1.97-.1-2.93-.02-.89-.06-1.79,0-2.67,.09-1.45-.78-2.17-2.25-2.36-1.33-.17-2.44,.41-3.32,1.4-.32,.36-.35,.8-.35,1.25,.01,1.48,.03,2.95,.05,4.43,0,.27,0,.54,0,.86h-1.33v-11.05h1.27v3c.32-.17,.51-.28,.71-.37,1.45-.7,2.97-.93,4.54-.54,1.58,.39,2.3,1.31,2.31,2.93,.02,1.84,0,3.68,0,5.51,0,.16-.02,.32-.04,.54Z"/><path class="cls-1" d="M72.5,46.39h1.36c.02,.24,.06,.46,.06,.67,0,1.25-.01,2.51,.01,3.76,.01,.77,.09,1.55,.13,2.21,.91,1.25,2.06,1.33,3.3,1.12,.24-.04,.48-.14,.71-.23,1.15-.42,1.71-1.15,1.73-2.37,.03-1.42,.01-2.84,.01-4.26,0-.27,0-.54,0-.87h1.4v8.63c-.34,.02-.68,.04-1.06,.06-.04-.38-.07-.69-.11-1.11-.23,.17-.39,.3-.56,.43-1.63,1.26-3.4,1.42-5.26,.6-.82-.36-1.46-1.03-1.59-1.93-.3-2.21-.08-4.44-.14-6.71Z"/><path class="cls-1" d="M21.18,46.38h1.17c.02,.21,.06,.42,.06,.63,0,1.22-.02,2.45,.01,3.67,.02,.69,.08,1.39,.17,2.08,.09,.68,.99,1.38,1.83,1.46,.84,.08,1.66-.04,2.44-.38,.81-.35,1.31-.96,1.41-1.82,.1-.85,.12-1.72,.14-2.58,.02-1,0-1.99,0-3.03h1.22c.18,.54,.24,7.5,.06,8.65h-1.07c-.02-.33-.04-.63-.06-1.01-.21,.15-.39,.26-.55,.39-1.6,1.22-3.35,1.43-5.18,.63-1.03-.46-1.71-1.28-1.74-2.44-.05-2-.02-4.01-.02-6.01,0-.05,.04-.1,.09-.23Z"/><path class="cls-1" d="M45.11,55.07h-1.06c-.04-.32-.07-.63-.12-1.03-.82,.7-1.67,1.23-2.67,1.4-1.53,.26-2.94,0-4.07-1.16-.44-.45-.7-1.02-.7-1.65-.01-2.01,0-4.01,0-6.02,0-.05,.04-.1,.08-.2h1.2c.02,.18,.07,.39,.07,.6,0,1.25,0,2.51,.01,3.76,0,.5,.04,1,.09,1.5,.11,1.07,.7,1.77,1.72,1.92,1.05,.16,2.06-.02,2.98-.55,.56-.32,.89-.85,1.01-1.47,.1-.49,.15-.99,.16-1.49,.02-1.41,0-2.83,0-4.28h1.29v8.67Z"/><path class="cls-1" d="M83.56,46.74c.04,.18,.08,.35,.1,.44,.81-.31,1.59-.72,2.41-.9,1.68-.37,3.52,.87,3.86,2.52,.03,.15,0,.32,0,.51-.12,.03-.23,.07-.33,.07-.28,0-.55,0-.87,0-.05-.12-.08-.22-.12-.32-.56-1.38-1.34-1.81-2.82-1.54-1.3,.24-2.14,1.18-2.16,2.48-.02,1.5,0,3.01,0,4.51,0,.3,0,.61,0,.97h-1.26c-.18-.6-.22-7.64-.05-8.75h1.24Z"/></svg>