<?xml version="1.0" encoding="UTF-8"?><svg id="_圖層_1" xmlns="http://www.w3.org/2000/svg" viewBox="0 0 100 100"><defs><style>.cls-1{fill:#ad0029;}</style></defs><path class="cls-1" d="M1,49.65c.09-.42,.15-.84,.28-1.25,.37-1.18,.98-2.21,2.02-2.92,.83-.57,1.74-.82,2.74-.62,.31,.06,.59,.24,.89,.35,.16,.06,.34,.1,.51,.1,.24,0,.4-.14,.49-.36,.02-.06,.09-.09,.14-.14,.02,.01,.03,.02,.05,.03v3.06c-.13,.05-.17,0-.19-.14-.08-.61-.27-1.18-.61-1.7-1.08-1.62-3.09-1.21-3.89-.04-.43,.64-.65,1.36-.75,2.11-.18,1.31-.18,2.63,0,3.94,.09,.68,.26,1.34,.62,1.94,.52,.87,1.4,1.28,2.39,1.12,.87-.14,1.56-.89,1.69-1.83,.02-.11,.01-.23,.01-.34,0-.6,0-1.2,0-1.83-.27,0-.52,0-.78,0-.14,0-.21-.04-.16-.2h2.9c0,.05,0,.11,.01,.19h-.8v3.98c-.13,.02-.22,.06-.26-.1-.12-.45-.4-.6-.86-.46-.16,.05-.33,.12-.46,.22-1.21,1.01-2.88,.61-3.87-.2-1.09-.89-1.71-2.06-2.01-3.42-.05-.22-.08-.44-.12-.66,0-.28,0-.56,0-.84Z"/><path class="cls-1" d="M88.83,45.68v9.22h.79v.21h-4.92c0-.06,0-.12-.01-.2h1.26c-.03-.08-.04-.14-.06-.2-.3-.92-.61-1.83-.9-2.75-.05-.14-.1-.2-.26-.2-1,0-2.01,0-3.01,0-.11,0-.19,0-.23,.14-.33,.97-.66,1.95-.99,2.92,0,.02,0,.04-.01,.08h.9v.21h-4.4c0-.07,0-.12,0-.2h.8v-9.12s-.02,0-.03,0c-1.05,3.12-2.1,6.25-3.15,9.37-.01,0-.03,0-.04,0-1.1-3.02-2.21-6.04-3.31-9.06h-.03v8.79h.84v.19s-.03,.02-.04,.02c-.89,0-1.78,.03-2.67,0-1.02-.04-1.77-.75-1.93-1.82-.07-.46-.05-.94-.08-1.41-.01-.24-.01-.49-.05-.73-.1-.58-.44-.97-1.01-1.14-.34-.1-1.38-.15-1.76-.08v4.97h1.22v.21h-6.5c0-.06,0-.12-.02-.2h1.27c-.19-.56-.36-1.1-.54-1.64-.15-.44-.29-.88-.43-1.33-.04-.12-.09-.17-.23-.17-1.02,0-2.05,0-3.07,0-.06,0-.17,.05-.18,.1-.35,.99-.68,1.98-1.02,2.97,0,.01,0,.02,0,.05h.89c0,.07,0,.13,.01,.21h-1.83v-.2c.17,0,.33-.01,.49,0,.13,.01,.19-.04,.23-.16,.44-1.3,.9-2.59,1.34-3.89,.7-2.01,1.4-4.03,2.09-6.04,.02-.06,.04-.12,.08-.2,.03,.09,.06,.15,.08,.21,1.1,3.29,2.21,6.58,3.31,9.88,.05,.16,.12,.22,.29,.21,.43-.02,.87,0,1.31,0v-9.66h-.78v-.21c.07,0,.14,0,.21,0,.96,0,1.92,0,2.88,0,.56,0,1.11,.07,1.63,.29,.97,.41,1.54,1.29,1.47,2.29-.07,1.03-.74,1.85-1.75,2.14-.03,0-.07,.02-.15,.04,.08,.03,.12,.04,.16,.05,.9,.24,1.44,.84,1.52,1.78,.06,.69,.02,1.38,.06,2.07,.01,.24,.06,.5,.16,.72,.15,.33,.43,.49,.8,.49,.47,0,.94,0,1.43,0v-9.66h-.78v-.21c.47,0,.94,0,1.4,0,.18,0,.4-.05,.52,.03,.12,.08,.15,.31,.21,.48,.87,2.44,1.74,4.88,2.62,7.32,.02,.06,.05,.11,.09,.21,.22-.65,.43-1.26,.64-1.88,.68-1.99,1.36-3.99,2.03-5.98,.05-.14,.11-.19,.26-.18,.57,0,1.14,0,1.73,0,0,.07,0,.12,.01,.21h-.72v9.67c.4,0,.79,0,1.19,0,.05,0,.11-.1,.14-.17,.4-1.15,.8-2.3,1.2-3.46,.75-2.15,1.49-4.31,2.24-6.46,.02-.06,.05-.12,.08-.21,.14,.41,.27,.79,.39,1.16,1,2.98,2,5.97,3,8.95,.05,.15,.11,.2,.27,.19,.38-.01,.75,0,1.14,0v-9.66h-.78c0-.08,0-.13-.01-.19,.03-.01,.04-.03,.06-.03,.66,0,1.32,0,1.98,0,.07,0,.15,.08,.2,.14,.9,1.41,1.79,2.83,2.69,4.24,.68,1.07,1.36,2.15,2.04,3.22,.03,.05,.07,.11,.13,.2v-7.6h-.78v-.2h4.88c0,.05,0,.11,0,.19h-.79v9.67h.78c0,.07,0,.13,.01,.21h-2.78c0-.07,0-.12,0-.2h.8v-9.66h-1.88v10.12s-.04,.01-.05,.02c-2.07-3.25-4.14-6.49-6.21-9.74-.01,0-.03,0-.04,.01Zm-24.32,4.01c.34,0,.66,0,.97,0,.4,0,.76-.13,1.06-.38,.61-.51,.9-1.16,.85-1.96-.04-.68-.25-1.29-.82-1.72-.62-.46-1.34-.4-2.06-.38v4.44Zm20.34,1.87c-.53-1.6-1.05-3.19-1.59-4.82-.56,1.64-1.1,3.22-1.65,4.82h3.24Zm-28.7,0h3.24c-.53-1.6-1.05-3.18-1.59-4.82-.56,1.64-1.1,3.22-1.65,4.82Z"/><path class="cls-1" d="M22.68,45.24h-.78v-.2c.07,0,.13,0,.19,0,.97,0,1.94,0,2.91,0,.55,0,1.08,.07,1.59,.28,1,.41,1.55,1.28,1.48,2.36-.06,.97-.77,1.82-1.76,2.09-.03,0-.06,.02-.13,.04,.07,.03,.11,.04,.15,.05,.89,.23,1.42,.8,1.51,1.71,.07,.65,.04,1.3,.06,1.95,0,.2,0,.4,.03,.59,.09,.62,.7,1.21,1.5,.67,.04,.05,.07,.1,.11,.15-.32,.3-.7,.33-1.08,.26-.93-.18-1.47-.78-1.68-1.68-.07-.3-.08-.62-.09-.93-.02-.37,0-.74-.02-1.11-.07-.96-.55-1.46-1.5-1.54-.42-.04-.85,0-1.3,0v4.98h1.22v.21h-3.19c0-.06,0-.12-.01-.2h.79v-9.67Zm1.19,4.45c.34,0,.66,0,.99,0,.38,0,.73-.12,1.03-.36,.74-.61,.99-1.4,.83-2.33-.14-.81-.56-1.4-1.38-1.65-.48-.15-.97-.1-1.47-.1v4.44Z"/><path class="cls-1" d="M40.71,49.95c.1-1.7,.75-3.3,2.26-4.44,1.32-.99,2.91-.99,4.21,.02,2.74,2.12,3.11,6.17,.61,8.69-.75,.76-1.67,1.17-2.75,1.15-1.14-.02-2.06-.54-2.81-1.37-.99-1.1-1.48-2.42-1.52-4.04Zm1.56,.51c.03,.35,.07,1.04,.16,1.72,.09,.69,.29,1.35,.68,1.94,.92,1.39,2.93,1.44,3.91,.09,.34-.47,.54-1,.66-1.56,.33-1.6,.33-3.2,.05-4.8-.13-.74-.37-1.45-.87-2.04-.74-.88-2.13-1.06-3.08-.41-.56,.39-.87,.95-1.09,1.58-.35,1.02-.4,2.08-.43,3.48Z"/><path class="cls-1" d="M21.5,50.49c-.07,1.29-.56,2.63-1.65,3.7-.78,.78-1.72,1.21-2.84,1.17-1.1-.04-1.99-.53-2.71-1.33-2.4-2.67-1.8-6.31,.4-8.28,1.39-1.25,3.23-1.28,4.69-.11,1.31,1.06,2.2,2.99,2.12,4.85Zm-7.23-.37c.06,.69,.11,1.38,.2,2.06,.09,.69,.29,1.35,.68,1.94,.92,1.39,2.93,1.43,3.91,.08,.34-.47,.54-1,.66-1.56,.32-1.5,.32-3.01,.1-4.52-.1-.72-.31-1.42-.71-2.05-.86-1.34-2.52-1.26-3.33-.65-.53,.4-.83,.94-1.04,1.55-.35,1.02-.4,2.08-.46,3.14Z"/><path class="cls-1" d="M36.15,44.86v3.03c-.16,.08-.18-.02-.2-.14-.08-.56-.24-1.1-.54-1.58-.36-.57-.83-.99-1.51-1.13-1.01-.2-2,.25-2.55,1.16-.38,.61-.55,1.29-.65,1.99-.17,1.27-.17,2.55,0,3.82,.09,.71,.26,1.39,.64,2.01,.52,.87,1.38,1.26,2.38,1.1,.86-.14,1.61-.9,1.68-1.81,.05-.72,.01-1.44,.01-2.19h-.92c0-.08,0-.14-.01-.21h2.91c0,.06,0,.12,.01,.19h-.8v3.96c-.12,.04-.21,.09-.26-.08-.14-.46-.39-.6-.86-.47-.16,.05-.34,.11-.46,.22-1.22,1.02-2.89,.61-3.89-.2-1.14-.94-1.81-2.17-2.03-3.61-.31-2.03,.35-3.78,1.84-5.18,.8-.75,1.79-1.08,2.89-.95,.37,.05,.73,.26,1.09,.38,.16,.05,.33,.11,.49,.11,.25,0,.43-.13,.53-.37,.02-.05,.1-.09,.15-.13,.02,.02,.03,.03,.05,.05Z"/><path class="cls-1" d="M38.35,45.24h-.78c0-.07,0-.12-.01-.19h2.78c0,.06,0,.11,.01,.19h-.8v9.67h.79v.2h-2.76v-.2h.78v-9.67Z"/><path class="cls-1" d="M10.38,45.24h-.78c0-.07,0-.12-.01-.19h2.76v.19h-.78v9.66h.78v.21h-2.75c0-.06,0-.12-.01-.2h.8v-9.67Z"/></svg>