<svg xmlns="http://www.w3.org/2000/svg" xmlns:xlink="http://www.w3.org/1999/xlink" viewBox="0 0 600 600"><defs><style>.cls-1{isolation:isolate;}.cls-2,.cls-3,.cls-4,.cls-5{fill-rule:evenodd;mix-blend-mode:screen;}.cls-2,.cls-3{opacity:0.37;}.cls-2{fill:url(#未命名漸層_8);}.cls-3{fill:url(#未命名漸層_8-2);}.cls-4,.cls-5{opacity:0.3;}.cls-4{fill:url(#未命名漸層_8-3);}.cls-5{fill:url(#未命名漸層_8-4);}</style><radialGradient id="未命名漸層_8" cx="309.92" cy="-1437.54" r="290.69" gradientTransform="matrix(1, -0.02, 0, 0.1, -6.09, 457.15)" gradientUnits="userSpaceOnUse"><stop offset="0" stop-color="#fff685"/><stop offset="0.17" stop-color="#fff685" stop-opacity="0.8"/><stop offset="0.48" stop-color="#fff685" stop-opacity="0.46"/><stop offset="0.72" stop-color="#fff685" stop-opacity="0.21"/><stop offset="0.91" stop-color="#fff685" stop-opacity="0.06"/><stop offset="1" stop-color="#fff685" stop-opacity="0"/></radialGradient><radialGradient id="未命名漸層_8-2" cx="-949.24" cy="15306.85" r="290.7" gradientTransform="matrix(-0.02, -1, 0.1, 0, -1315.35, -609.16)" xlink:href="#未命名漸層_8"/><radialGradient id="未命名漸層_8-3" cx="-268.76" cy="-16567.74" r="190.12" gradientTransform="matrix(0.72, 0.69, -0.05, 0.05, -297.28, 1317.01)" xlink:href="#未命名漸層_8"/><radialGradient id="未命名漸層_8-4" cx="30.27" cy="14031.34" r="190.12" gradientTransform="matrix(0.69, -0.72, 0.05, 0.05, -425.24, -348.77)" xlink:href="#未命名漸層_8"/></defs><g class="cls-1"><g id="圖層_1" data-name="圖層 1"><path class="cls-2" d="M590.6,292.82c.42,16.71-129.36,33.46-289.85,37.41S9.81,323.87,9.4,307.17s129.36-33.45,289.86-37.41S590.2,276.13,590.6,292.82Z"/><path class="cls-3" d="M292.83,9.4c16.71-.42,33.45,129.36,37.41,289.85s-6.37,290.93-23.06,291.35-33.45-129.36-37.41-289.86S276.13,9.8,292.83,9.4Z"/><path class="cls-4" d="M437.66,431c-5,5.28-70.72-49.11-146.75-121.47S157.33,174.25,162.35,169s70.72,49.12,146.74,121.47S442.68,425.75,437.66,431Z"/><path class="cls-5" d="M431,162.34c5.27,5-49.12,70.73-121.47,146.75S174.25,442.67,169,437.65s49.12-70.71,121.47-146.74S425.75,157.33,431,162.34Z"/></g></g></svg>