<svg width="24" height="24" viewBox="0 0 24 24" fill="none" xmlns="http://www.w3.org/2000/svg">
    <path fill-rule="evenodd" clip-rule="evenodd" d="M5.253 8.372v-.438l1.219.03-1.22-.031V7.93l.001-.003v-.007l.001-.021a4.377 4.377 0 0 1 .019-.289 9.31 9.31 0 0 1 .097-.75 9.186 9.186 0 0 1 .69-2.28c.39-.845.99-1.747 1.914-2.44C8.914 1.437 10.122 1 11.626 1c1.505 0 2.714.437 3.656 1.14.927.69 1.53 1.591 1.925 2.435.394.844.598 1.672.705 2.28a9.351 9.351 0 0 1 .122 1.037v.021l.001.008v.004l-1.218.038 1.218-.037v.446h5.255V23H0V8.372h5.253zm2.438 0V7.963l.01-.142a6.88 6.88 0 0 1 .072-.551c.08-.47.23-1.077.502-1.669.272-.59.648-1.125 1.16-1.51.498-.372 1.188-.653 2.191-.653 1.004 0 1.697.281 2.198.656.517.385.898.921 1.174 1.513.277.592.43 1.2.513 1.67a6.837 6.837 0 0 1 .086.694v.4H7.692zm7.907 2.438v3.713h2.438V10.81h2.815v9.752H2.438V10.81h13.16z" fill="#000"/>
</svg>
