<svg width="46" height="46" viewBox="0 0 46 46" fill="none" xmlns="http://www.w3.org/2000/svg">
<path d="M0 0H46V46H0V0Z" fill="white"/>
<path d="M28.7806 26.5544C28.1142 26.5544 27.4991 26.7883 27.0174 27.1788L22.1722 23.6735C22.2533 23.2282 22.2533 22.7718 22.1722 22.3265L27.0174 18.8212C27.4991 19.2117 28.1142 19.4456 28.7806 19.4456C30.3287 19.4456 31.5867 18.1875 31.5867 16.6395C31.5867 15.0914 30.3287 13.8333 28.7806 13.8333C27.2326 13.8333 25.9745 15.0914 25.9745 16.6395C25.9745 16.9107 26.0119 17.1703 26.0844 17.4182L21.4824 20.7504C20.7995 19.8455 19.7145 19.2585 18.4915 19.2585C16.4243 19.2585 14.75 20.9328 14.75 23C14.75 25.0672 16.4243 26.7415 18.4915 26.7415C19.7145 26.7415 20.7995 26.1546 21.4824 25.2496L26.0844 28.5818C26.0119 28.8297 25.9745 29.0916 25.9745 29.3605C25.9745 30.9086 27.2326 32.1667 28.7806 32.1667C30.3287 32.1667 31.5867 30.9086 31.5867 29.3605C31.5867 27.8125 30.3287 26.5544 28.7806 26.5544ZM28.7806 15.4235C29.4517 15.4235 29.9966 15.9683 29.9966 16.6395C29.9966 17.3106 29.4517 17.8554 28.7806 17.8554C28.1095 17.8554 27.5646 17.3106 27.5646 16.6395C27.5646 15.9683 28.1095 15.4235 28.7806 15.4235ZM18.4915 25.0578C17.3574 25.0578 16.4337 24.1341 16.4337 23C16.4337 21.8659 17.3574 20.9422 18.4915 20.9422C19.6256 20.9422 20.5493 21.8659 20.5493 23C20.5493 24.1341 19.6256 25.0578 18.4915 25.0578ZM28.7806 30.5765C28.1095 30.5765 27.5646 30.0317 27.5646 29.3605C27.5646 28.6894 28.1095 28.1446 28.7806 28.1446C29.4517 28.1446 29.9966 28.6894 29.9966 29.3605C29.9966 30.0317 29.4517 30.5765 28.7806 30.5765Z" fill="#23D2B4"/>
<path d="M0 0V-2H-2V0H0ZM46 0H48V-2H46V0ZM46 46V48H48V46H46ZM0 46H-2V48H0V46ZM0 2H46V-2H0V2ZM44 0V46H48V0H44ZM46 44H0V48H46V44ZM2 46V0H-2V46H2Z" fill="#23D2B4"/>
</svg>
