<svg width="24" height="24" viewBox="0 0 24 24" fill="none" xmlns="http://www.w3.org/2000/svg">
    <path fill-rule="evenodd" clip-rule="evenodd" d="M12.014 5.116 10.77 3.873a6.292 6.292 0 1 0-8.897 8.897l10.111 10.112.002-.003.03.03 10.111-10.111A6.291 6.291 0 1 0 13.23 3.9l-1.216 1.216zm-.028 14.528 5.647-5.647 1.659-1.602h.002l1.216-1.215a4.004 4.004 0 0 0-5.663-5.662L12.015 8.35l-.008-.008h-.001L9.153 5.491a4.004 4.004 0 1 0-5.663 5.663l2.906 2.905.001-.003 5.59 5.59v-.002z" fill="#fff"/>
</svg>
