<svg width="24" height="24" viewBox="0 0 24 24" fill="none" xmlns="http://www.w3.org/2000/svg">
    <path d="M12 8.667h4.444c.612 0 1.112-.5 1.112-1.111 0-.612-.5-1.112-1.112-1.112H12c-.611 0-1.111.5-1.111 1.112 0 .61.5 1.11 1.111 1.11zm0 4.444h4.444c.612 0 1.112-.5 1.112-1.111s-.5-1.111-1.112-1.111H12c-.611 0-1.111.5-1.111 1.111s.5 1.111 1.111 1.111zm0 4.445h4.444c.612 0 1.112-.5 1.112-1.112 0-.61-.5-1.11-1.112-1.11H12c-.611 0-1.111.5-1.111 1.11 0 .612.5 1.112 1.111 1.112zM6.444 6.444h2.223v2.223H6.444V6.444zm0 4.445h2.223v2.222H6.444V10.89zm0 4.444h2.223v2.223H6.444v-2.223zM20.89 2H3.11C2.5 2 2 2.5 2 3.111V20.89C2 21.5 2.5 22 3.111 22H20.89C21.5 22 22 21.5 22 20.889V3.11C22 2.5 21.5 2 20.889 2zm-1.111 17.778H4.222V4.222h15.556v15.556z" fill="#5D5D5D"/>
</svg>
