<svg width="160" height="34" viewBox="0 0 160 34" fill="none" xmlns="http://www.w3.org/2000/svg">
    <path d="M23.686.015H20.42v22.834h3.265V.015zM57.748 15.025v-2.78h-4.177V6.06H50.32v6.184h-2.556v2.78h2.556v7.829h3.255V15.03l4.174-.005zM87.838 15.65a7.228 7.228 0 0 0-2.764-2.8 8.202 8.202 0 0 0-4.164-1.025 8.488 8.488 0 0 0-4.215 1.025 7.493 7.493 0 0 0-2.869 2.8 6.436 6.436 0 0 0-1.036 3.96 8.266 8.266 0 0 0 .609 3.239h4.091a4.88 4.88 0 0 1-.52-.771 5.066 5.066 0 0 1-.588-2.468c-.01-.84.186-1.669.57-2.415a4.607 4.607 0 0 1 1.572-1.754 3.994 3.994 0 0 1 2.246-.66c.83-.019 1.649.211 2.35.66.664.436 1.2 1.041 1.555 1.754.373.75.563 1.578.553 2.415a5.356 5.356 0 0 1-.553 2.45c-.14.28-.31.543-.506.788h4.018a8.187 8.187 0 0 0 .635-3.239 8.014 8.014 0 0 0-.984-3.96zM15.47 15.528a6.857 6.857 0 0 0-2.557-2.728 6.992 6.992 0 0 0-3.662-.973 7.264 7.264 0 0 0-3.49.834 9.925 9.925 0 0 0-2.465 1.844v-2.261H0v21.751h3.3v-9.032a6.252 6.252 0 0 0 2.241 1.7c.95.48 1.996.73 3.058.73.385 0 .77-.023 1.152-.069l2.073-4.476h4.028a8.542 8.542 0 0 0 .557-3.168 8.723 8.723 0 0 0-.939-4.152zm-7.338 9.036a4.828 4.828 0 0 1-3.423-1.426 4.882 4.882 0 0 1-1.418-3.442c0-1.291.51-2.53 1.418-3.442a4.828 4.828 0 0 1 3.423-1.426c1.284 0 2.515.513 3.423 1.426a4.882 4.882 0 0 1 1.418 3.442c0 1.291-.51 2.53-1.418 3.442a4.828 4.828 0 0 1-3.423 1.426zM40.521 12.245v2.341a7.772 7.772 0 0 0-2.088-1.873 6.021 6.021 0 0 0-3.403-.885 7.116 7.116 0 0 0-3.675.962 7.167 7.167 0 0 0-2.666 2.72 8.363 8.363 0 0 0-1.024 4.24 9.327 9.327 0 0 0 .477 3.1h3.95a4.893 4.893 0 0 1-.809-5.232 4.862 4.862 0 0 1 1.786-2.097 4.822 4.822 0 0 1 5.266 0 4.862 4.862 0 0 1 1.786 2.096 4.893 4.893 0 0 1-.81 5.232h4.476v-10.6l-3.266-.005zM95.473 17.885c.481-1.257 1.66-2.84 3.031-2.84a3.556 3.556 0 0 1 2.07.765l1.499-3a5.997 5.997 0 0 0-3.082-.965 4.148 4.148 0 0 0-1.92.416c-.684.389-1.3.89-1.82 1.482l-.01.025.01-1.52H91.9v10.6h3.293l.014-2.224a7.712 7.712 0 0 1 .266-2.739zM121.895 11.848c-2.146 0-3.734 1.208-5.234 2.69a4.521 4.521 0 0 0-1.833-2.078 4.484 4.484 0 0 0-2.695-.612 6.77 6.77 0 0 0-4.705 2.11v-1.713h-3.261v10.61h3.261V17.04a4.902 4.902 0 0 1 3.176-1.729 3.065 3.065 0 0 1 2.398.844 3.098 3.098 0 0 1 .953 2.368v4.33h3.265v-5.813a4.9 4.9 0 0 1 3.175-1.729 3.07 3.07 0 0 1 2.398.845c.317.304.566.672.73 1.08.164.408.24.847.223 1.287v4.33h3.264V18.03c0-3.876-1.616-6.182-5.115-6.182zM66.4 6.582c0-.176 0-.735.017-.9a4.922 4.922 0 0 1 .487-2.327 1.88 1.88 0 0 1 1.716-.724c.234.001.466.037.69.107.248.064.485.165.704.3l1.24-2.195a3.981 3.981 0 0 0-1.47-.647A6.942 6.942 0 0 0 68.288.01a4.8 4.8 0 0 0-3.83 1.51 6.936 6.936 0 0 0-1.306 4.16 45.02 45.02 0 0 0-.013.828v5.733h-2.453v3.169h2.453v7.442h3.26V15.41h4.854v-3.162H66.4V6.582zM148.824 3.041h-.242l-8.372 19.808h13.191l1.772 4.543h3.944L148.824 3.041zm-.121 16.647h-3.359l3.359-8.593 3.358 8.593h-3.358z" fill="#fff"/>
</svg>
