<svg width="18" height="18" viewBox="0 0 18 18" fill="none" xmlns="http://www.w3.org/2000/svg">
    <path d="M.75 9a8.253 8.253 0 0 0 5.314 7.712c-.075-.644-.156-1.706.018-2.451.149-.641.963-4.083.963-4.083s-.246-.491-.246-1.22c0-1.14.662-1.993 1.486-1.993.701 0 1.04.526 1.04 1.156 0 .705-.45 1.758-.681 2.735-.193.818.41 1.485 1.216 1.485 1.46 0 2.582-1.54 2.582-3.762 0-1.967-1.413-3.341-3.431-3.341-2.336 0-3.708 1.752-3.708 3.564 0 .706.272 1.462.612 1.874a.248.248 0 0 1 .057.236c-.063.26-.202.817-.229.931-.036.15-.119.183-.275.11-1.025-.477-1.666-1.977-1.666-3.181 0-2.591 1.882-4.97 5.426-4.97 2.849 0 5.063 2.03 5.063 4.743 0 2.83-1.784 5.109-4.262 5.109-.832 0-1.614-.433-1.882-.944l-.512 1.952c-.194.745-.731 1.689-1.065 2.224A8.25 8.25 0 1 0 .75 9z" fill="#23D2B4"/>
</svg>
