<svg width="41" height="40" viewBox="0 0 41 40" fill="none" xmlns="http://www.w3.org/2000/svg">
    <path d="M31.167 33.333c.707 0 1.385-.292 1.885-.813.5-.521.781-1.228.781-1.964v-6.784c0-.736-.28-1.443-.78-1.964a2.614 2.614 0 0 0-1.886-.814h-3.702c0-.974.056-1.952.166-2.927.165-1.034.442-1.953.826-2.756.387-.805.883-1.436 1.491-1.897.605-.517 1.376-.775 2.315-.775V8.333c-1.544 0-2.894.345-4.054 1.034a9.003 9.003 0 0 0-2.893 2.755 13.974 13.974 0 0 0-1.653 4.05c-.34 1.583-.507 3.2-.496 4.822v9.562c0 .736.28 1.443.78 1.964.5.52 1.18.813 1.886.813h5.334zm-16 0c.707 0 1.385-.292 1.885-.813.5-.521.782-1.228.782-1.964v-6.784c0-.736-.281-1.443-.782-1.964a2.613 2.613 0 0 0-1.885-.814h-3.701c0-.974.056-1.952.165-2.927.165-1.034.443-1.953.827-2.756.386-.805.882-1.436 1.49-1.897.606-.517 1.376-.775 2.315-.775V8.333c-1.544 0-2.893.345-4.053 1.034a9.004 9.004 0 0 0-2.894 2.755 13.975 13.975 0 0 0-1.653 4.05 22.28 22.28 0 0 0-.496 4.822v9.562c0 .736.281 1.443.781 1.964.5.52 1.178.813 1.886.813h5.333z" fill="#000"/>
</svg>
